<svg width="196" height="196" viewBox="0 0 196 196" fill="none" xmlns="http://www.w3.org/2000/svg">
<g filter="url(#filter0_i_0_245)">
<circle cx="97.5005" cy="86.9414" r="56.0128" fill="#E9EFF6"/>
</g>
<g filter="url(#filter1_d_0_245)">
<circle cx="98.0197" cy="86.4227" r="47.7146" fill="white"/>
</g>
<path d="M82.0708 74.0802L79.1888 77.8202C80.2595 78.1282 81.1102 78.6709 81.7408 79.4482C82.3862 80.2255 82.7088 81.1495 82.7088 82.2202C82.7088 83.8042 82.1735 85.0435 81.1028 85.9382C80.0615 86.8329 78.7635 87.2802 77.2088 87.2802C75.9915 87.2802 74.9135 87.0015 73.9748 86.4442C73.0362 85.8722 72.3542 85.0655 71.9288 84.0242L74.5248 82.5282C74.8915 83.7162 75.7862 84.3102 77.2088 84.3102C77.9862 84.3102 78.5875 84.1269 79.0128 83.7602C79.4528 83.3789 79.6728 82.8655 79.6728 82.2202C79.6728 81.5895 79.4528 81.0835 79.0128 80.7022C78.5875 80.3209 77.9862 80.1302 77.2088 80.1302H76.5488L75.3828 78.3702L78.4188 74.4102H72.3908V71.5722H82.0708V74.0802ZM91.2211 87.2802C89.2998 87.2802 87.7891 86.5542 86.6891 85.1022C85.6038 83.6209 85.0611 81.6775 85.0611 79.2722C85.0611 76.8669 85.6038 74.9309 86.6891 73.4642C87.7891 71.9975 89.2998 71.2642 91.2211 71.2642C93.1718 71.2642 94.6824 71.9975 95.7531 73.4642C96.8384 74.9309 97.3811 76.8669 97.3811 79.2722C97.3811 81.6775 96.8384 83.6209 95.7531 85.1022C94.6824 86.5542 93.1718 87.2802 91.2211 87.2802ZM94.3671 79.2722C94.3671 77.6295 94.0958 76.3755 93.5531 75.5102C93.0251 74.6449 92.2478 74.2122 91.2211 74.2122C90.1944 74.2122 89.4171 74.6449 88.8891 75.5102C88.3611 76.3755 88.0971 77.6295 88.0971 79.2722C88.0971 80.9149 88.3611 82.1689 88.8891 83.0342C89.4171 83.8849 90.1944 84.3102 91.2211 84.3102C92.2478 84.3102 93.0251 83.8775 93.5531 83.0122C94.0958 82.1469 94.3671 80.9002 94.3671 79.2722ZM105.959 87.2802C104.037 87.2802 102.527 86.5542 101.427 85.1022C100.341 83.6209 99.7985 81.6775 99.7985 79.2722C99.7985 76.8669 100.341 74.9309 101.427 73.4642C102.527 71.9975 104.037 71.2642 105.959 71.2642C107.909 71.2642 109.42 71.9975 110.491 73.4642C111.576 74.9309 112.119 76.8669 112.119 79.2722C112.119 81.6775 111.576 83.6209 110.491 85.1022C109.42 86.5542 107.909 87.2802 105.959 87.2802ZM109.105 79.2722C109.105 77.6295 108.833 76.3755 108.291 75.5102C107.763 74.6449 106.985 74.2122 105.959 74.2122C104.932 74.2122 104.155 74.6449 103.627 75.5102C103.099 76.3755 102.835 77.6295 102.835 79.2722C102.835 80.9149 103.099 82.1689 103.627 83.0342C104.155 83.8849 104.932 84.3102 105.959 84.3102C106.985 84.3102 107.763 83.8775 108.291 83.0122C108.833 82.1469 109.105 80.9002 109.105 79.2722ZM120.652 81.4062L125.206 86.9722H121.906L117.902 81.9782V86.9722H115.064V71.5722H117.902V80.8122L121.686 75.9722H125.074L120.652 81.4062Z" fill="#1C1E2F"/>
<path d="M81.2958 95.521H84.3858V96.313H83.2518V99.721H82.4238V96.313H81.2958V95.521ZM86.8231 99.349C86.5191 99.653 86.1431 99.805 85.6951 99.805C85.2471 99.805 84.8711 99.653 84.5671 99.349C84.2631 99.045 84.1111 98.669 84.1111 98.221C84.1111 97.777 84.2631 97.403 84.5671 97.099C84.8751 96.791 85.2511 96.637 85.6951 96.637C86.1391 96.637 86.5151 96.791 86.8231 97.099C87.1311 97.407 87.2851 97.781 87.2851 98.221C87.2851 98.665 87.1311 99.041 86.8231 99.349ZM85.1131 98.815C85.2691 98.971 85.4631 99.049 85.6951 99.049C85.9271 99.049 86.1211 98.971 86.2771 98.815C86.4331 98.659 86.5111 98.461 86.5111 98.221C86.5111 97.981 86.4331 97.783 86.2771 97.627C86.1211 97.471 85.9271 97.393 85.6951 97.393C85.4631 97.393 85.2691 97.471 85.1131 97.627C84.9611 97.787 84.8851 97.985 84.8851 98.221C84.8851 98.457 84.9611 98.655 85.1131 98.815ZM89.4812 96.721V97.465H88.8032V98.713C88.8032 98.817 88.8292 98.893 88.8812 98.941C88.9332 98.989 89.0092 99.017 89.1092 99.025C89.2092 99.029 89.3332 99.027 89.4812 99.019V99.721C88.9572 99.781 88.5832 99.733 88.3592 99.577C88.1392 99.417 88.0292 99.129 88.0292 98.713V97.465H87.5072V96.721H88.0292V96.115L88.8032 95.881V96.721H89.4812ZM92.2131 97.075V96.721H92.9871V99.721H92.2131V99.367C91.9811 99.659 91.6551 99.805 91.2351 99.805C90.8351 99.805 90.4911 99.653 90.2031 99.349C89.9191 99.041 89.7771 98.665 89.7771 98.221C89.7771 97.781 89.9191 97.407 90.2031 97.099C90.4911 96.791 90.8351 96.637 91.2351 96.637C91.6551 96.637 91.9811 96.783 92.2131 97.075ZM90.7851 98.833C90.9411 98.989 91.1391 99.067 91.3791 99.067C91.6191 99.067 91.8171 98.989 91.9731 98.833C92.1331 98.673 92.2131 98.469 92.2131 98.221C92.2131 97.973 92.1331 97.771 91.9731 97.615C91.8171 97.455 91.6191 97.375 91.3791 97.375C91.1391 97.375 90.9411 97.455 90.7851 97.615C90.6291 97.771 90.5511 97.973 90.5511 98.221C90.5511 98.469 90.6291 98.673 90.7851 98.833ZM94.463 99.721H93.689V95.341H94.463V99.721ZM97.5354 97.987V98.929H99.3054V99.721H96.7074V95.521H99.2754V96.313H97.5354V97.207H99.1254V97.987H97.5354ZM101.095 98.821L101.827 96.721H102.679L101.539 99.721H100.657L99.5171 96.721H100.369L101.095 98.821ZM105.851 98.539H103.589C103.689 98.915 103.971 99.103 104.435 99.103C104.731 99.103 104.955 99.003 105.107 98.803L105.731 99.163C105.435 99.591 104.999 99.805 104.423 99.805C103.927 99.805 103.529 99.655 103.229 99.355C102.929 99.055 102.779 98.677 102.779 98.221C102.779 97.773 102.927 97.397 103.223 97.093C103.515 96.789 103.895 96.637 104.363 96.637C104.807 96.637 105.169 96.789 105.449 97.093C105.737 97.397 105.881 97.773 105.881 98.221C105.881 98.305 105.871 98.411 105.851 98.539ZM103.577 97.939H105.107C105.063 97.743 104.973 97.593 104.837 97.489C104.705 97.385 104.547 97.333 104.363 97.333C104.155 97.333 103.983 97.387 103.847 97.495C103.711 97.599 103.621 97.747 103.577 97.939ZM108.089 96.637C108.421 96.637 108.691 96.747 108.899 96.967C109.115 97.191 109.223 97.495 109.223 97.879V99.721H108.449V97.975C108.449 97.779 108.395 97.627 108.287 97.519C108.183 97.411 108.039 97.357 107.855 97.357C107.651 97.357 107.489 97.421 107.369 97.549C107.253 97.673 107.195 97.857 107.195 98.101V99.721H106.421V96.721H107.195V97.057C107.379 96.777 107.677 96.637 108.089 96.637ZM111.6 96.721V97.465H110.922V98.713C110.922 98.817 110.948 98.893 111 98.941C111.052 98.989 111.128 99.017 111.228 99.025C111.328 99.029 111.452 99.027 111.6 99.019V99.721C111.076 99.781 110.702 99.733 110.478 99.577C110.258 99.417 110.148 99.129 110.148 98.713V97.465H109.626V96.721H110.148V96.115L110.922 95.881V96.721H111.6ZM112.796 97.573C112.796 97.701 112.978 97.811 113.342 97.903C113.47 97.931 113.586 97.965 113.69 98.005C113.794 98.041 113.898 98.095 114.002 98.167C114.11 98.235 114.194 98.327 114.254 98.443C114.314 98.559 114.344 98.693 114.344 98.845C114.344 99.153 114.228 99.391 113.996 99.559C113.764 99.723 113.478 99.805 113.138 99.805C112.522 99.805 112.102 99.567 111.878 99.091L112.55 98.713C112.642 98.973 112.838 99.103 113.138 99.103C113.414 99.103 113.552 99.017 113.552 98.845C113.552 98.717 113.37 98.607 113.006 98.515C112.87 98.479 112.754 98.443 112.658 98.407C112.562 98.371 112.458 98.319 112.346 98.251C112.234 98.179 112.148 98.089 112.088 97.981C112.032 97.869 112.004 97.739 112.004 97.591C112.004 97.295 112.112 97.063 112.328 96.895C112.548 96.723 112.82 96.637 113.144 96.637C113.388 96.637 113.61 96.693 113.81 96.805C114.01 96.913 114.168 97.069 114.284 97.273L113.624 97.633C113.528 97.429 113.368 97.327 113.144 97.327C113.044 97.327 112.96 97.351 112.892 97.399C112.828 97.443 112.796 97.501 112.796 97.573Z" fill="#475799"/>
<path d="M57.168 60.3346C52.3938 67.6646 49.6799 76.1442 49.3107 84.8841C48.9415 93.624 50.9307 102.302 55.0697 110.009C59.2087 117.715 65.345 124.166 72.8351 128.685C80.3253 133.204 88.8933 135.624 97.6407 135.692L97.6876 129.654C90.0236 129.594 82.5169 127.474 75.9545 123.515C69.3921 119.555 64.0159 113.904 60.3896 107.152C56.7632 100.4 55.0204 92.7963 55.3439 85.1389C55.6673 77.4816 58.0451 70.0523 62.2279 63.6302L57.168 60.3346Z" fill="url(#paint0_linear_0_245)"/>
<g filter="url(#filter2_b_0_245)">
<path d="M110.985 133.1C110.985 140.261 105.18 146.066 98.019 146.066C90.8581 146.066 85.0531 140.261 85.0531 133.1C85.0531 125.939 90.8581 120.134 98.019 120.134C105.18 120.134 110.985 125.939 110.985 133.1Z" fill="white" fill-opacity="0.2"/>
</g>
<circle cx="98.0188" cy="133.1" r="4.66773" fill="white"/>
<path d="M155.06 89.0166C155.329 73.8687 149.72 59.2054 139.412 48.1028C129.104 37.0001 114.896 30.3209 99.7699 29.4661L99.6636 31.3477C114.303 32.175 128.054 38.6395 138.031 49.3851C148.008 60.1307 153.436 74.3224 153.176 88.9832L155.06 89.0166Z" fill="url(#paint1_linear_0_245)"/>
<circle cx="98.0194" cy="30.929" r="4.40841" fill="white" stroke="#2458FF" stroke-width="1.55591"/>
<circle cx="153.514" cy="86.9417" r="4.1491" fill="white"/>
<path d="M44.081 124.802C44.2884 124.595 45.5504 123.505 46.1555 122.987M38.3759 115.726L40.9691 114.429M34.4862 105.872C34.6936 105.872 36.4743 105.353 37.3387 105.094M32.4116 95.7583L35.2641 95.2396M31.6337 85.3855C31.8411 85.1781 33.6218 85.2991 34.4862 85.3855M32.6709 74.7535L35.2641 75.2721M35.0048 64.6401L37.598 65.418M39.1539 54.786L41.4878 56.0825M44.5996 45.7098L46.9335 47.525M51.8605 38.1896L53.6757 40.0048M59.8994 31.4473L61.4553 33.5218M68.9755 26.0016L70.2721 28.3355M78.5703 22.1118L79.3483 24.705M88.6837 19.778L89.2024 22.3711M98.5378 19C98.5378 19.4149 98.5378 21.0745 98.5378 21.8525M108.911 19.778L108.392 22.3711M119.283 22.1118C119.283 22.5267 118.592 24.1864 118.246 24.9643M128.878 26.2609L127.582 28.8541M137.954 31.9659L136.139 34.2998M145.734 38.7082C145.734 38.9157 144.351 40.1777 143.659 40.7828M152.735 46.7471L150.402 48.5623M158.181 55.8232L155.588 57.1198M162.071 65.6773L159.218 66.4553M164.405 75.7908L161.552 76.3094M165.183 86.1635H162.33M164.145 96.7956L161.293 96.2769M162.071 107.168L158.959 105.872M157.662 116.763L155.069 115.466M152.217 125.58L149.883 124.024" stroke="#C7CBDC" stroke-width="0.518637"/>
<defs>
<filter id="filter0_i_0_245" x="41.4877" y="30.9286" width="112.026" height="112.026" filterUnits="userSpaceOnUse" color-interpolation-filters="sRGB">
<feFlood flood-opacity="0" result="BackgroundImageFix"/>
<feBlend mode="normal" in="SourceGraphic" in2="BackgroundImageFix" result="shape"/>
<feColorMatrix in="SourceAlpha" type="matrix" values="0 0 0 0 0 0 0 0 0 0 0 0 0 0 0 0 0 0 127 0" result="hardAlpha"/>
<feOffset/>
<feGaussianBlur stdDeviation="4.66773"/>
<feComposite in2="hardAlpha" operator="arithmetic" k2="-1" k3="1"/>
<feColorMatrix type="matrix" values="0 0 0 0 0 0 0 0 0 0 0 0 0 0 0 0 0 0 0.1 0"/>
<feBlend mode="normal" in2="shape" result="effect1_innerShadow_0_245"/>
</filter>
<filter id="filter1_d_0_245" x="0.515965" y="0.328933" width="195.007" height="195.008" filterUnits="userSpaceOnUse" color-interpolation-filters="sRGB">
<feFlood flood-opacity="0" result="BackgroundImageFix"/>
<feColorMatrix in="SourceAlpha" type="matrix" values="0 0 0 0 0 0 0 0 0 0 0 0 0 0 0 0 0 0 127 0" result="hardAlpha"/>
<feOffset dy="11.41"/>
<feGaussianBlur stdDeviation="24.8946"/>
<feColorMatrix type="matrix" values="0 0 0 0 0.666667 0 0 0 0 0.768627 0 0 0 0 0.905882 0 0 0 1 0"/>
<feBlend mode="normal" in2="BackgroundImageFix" result="effect1_dropShadow_0_245"/>
<feBlend mode="normal" in="SourceGraphic" in2="effect1_dropShadow_0_245" result="shape"/>
</filter>
<filter id="filter2_b_0_245" x="79.8667" y="114.948" width="36.3046" height="36.3046" filterUnits="userSpaceOnUse" color-interpolation-filters="sRGB">
<feFlood flood-opacity="0" result="BackgroundImageFix"/>
<feGaussianBlur in="BackgroundImage" stdDeviation="2.59318"/>
<feComposite in2="SourceAlpha" operator="in" result="effect1_backgroundBlur_0_245"/>
<feBlend mode="normal" in="SourceGraphic" in2="effect1_backgroundBlur_0_245" result="shape"/>
</filter>
<linearGradient id="paint0_linear_0_245" x1="91.3165" y1="64.3008" x2="40.0587" y2="104.837" gradientUnits="userSpaceOnUse">
<stop offset="0.0052011" stop-color="#D320C1"/>
<stop offset="0.320198" stop-color="#C624C6"/>
<stop offset="0.970779" stop-color="#1461FF"/>
</linearGradient>
<linearGradient id="paint1_linear_0_245" x1="154.702" y1="59.6366" x2="126.198" y2="31.5206" gradientUnits="userSpaceOnUse">
<stop offset="0.0052011" stop-color="#D320C1"/>
<stop offset="0.498033" stop-color="#C624C6"/>
<stop offset="0.970779" stop-color="#1461FF"/>
</linearGradient>
</defs>
</svg>
