<svg width="18" height="18" viewBox="0 0 18 18" fill="none" xmlns="http://www.w3.org/2000/svg">
<path fill-rule="evenodd" clip-rule="evenodd" d="M9.48294 8.96955L12.0476 6.41047C12.2815 6.17656 12.2815 5.79731 12.0476 5.5634C11.8138 5.32949 11.4346 5.32949 11.2007 5.5634L8.64196 8.12845L6.08324 5.5634C5.84937 5.32949 5.47018 5.32949 5.2363 5.5634C5.00242 5.79731 5.00242 6.17656 5.2363 6.41047L7.80099 8.96955L5.2363 11.5286C5.12339 11.6406 5.05988 11.7931 5.05988 11.9522C5.05988 12.1112 5.12339 12.2637 5.2363 12.3757C5.34829 12.4886 5.50074 12.5522 5.65977 12.5522C5.81881 12.5522 5.97125 12.4886 6.08324 12.3757L8.64196 9.81065L11.2007 12.3757C11.3127 12.4886 11.4651 12.5522 11.6242 12.5522C11.7832 12.5522 11.9356 12.4886 12.0476 12.3757C12.1605 12.2637 12.2241 12.1112 12.2241 11.9522C12.2241 11.7931 12.1605 11.6406 12.0476 11.5286L9.48294 8.96955Z" fill="#11243D"/>
</svg>
