<svg width="42" height="42" viewBox="0 0 42 42" fill="none" xmlns="http://www.w3.org/2000/svg">
<path fill-rule="evenodd" clip-rule="evenodd" d="M27.0167 21.8717C27.0167 18.8322 24.552 16.3675 21.5125 16.3675C18.473 16.3675 16.0083 18.8322 16.0083 21.8717C16.0083 24.9112 18.473 27.3759 21.5125 27.3759C24.552 27.3759 27.0167 24.9112 27.0167 21.8717Z" stroke="#AC6755" stroke-width="2.625" stroke-linecap="round" stroke-linejoin="round"/>
<path fill-rule="evenodd" clip-rule="evenodd" d="M21.5119 35.3502C35.5911 35.3502 37.2675 31.1318 37.2675 21.9912C37.2675 15.5844 36.4201 12.1562 31.0835 10.6826C30.5935 10.5278 30.0501 10.2331 29.6098 9.7486C28.8988 8.96939 28.3793 6.5765 26.6625 5.85255C24.9456 5.13045 18.0506 5.1636 16.3614 5.85255C14.674 6.54334 14.1251 8.96939 13.414 9.7486C12.9738 10.2331 12.4322 10.5278 11.9404 10.6826C6.60378 12.1562 5.75641 15.5844 5.75641 21.9912C5.75641 31.1318 7.43272 35.3502 21.5119 35.3502Z" stroke="#AC6755" stroke-width="2.625" stroke-linecap="round" stroke-linejoin="round"/>
<path d="M30.1078 15.75H30.1236" stroke="#AC6755" stroke-width="2.625" stroke-linecap="round" stroke-linejoin="round"/>
</svg>
