<svg width="65" height="26" viewBox="0 0 65 26" fill="none" xmlns="http://www.w3.org/2000/svg">
<path d="M35.3468 11.4748H32.3968V13.4348H35.2468V14.5348H32.3968V17.3748H31.2468V10.3748H35.3468V11.4748ZM38.7126 17.5048C37.9793 17.5048 37.3559 17.2515 36.8426 16.7448C36.3293 16.2382 36.0726 15.6148 36.0726 14.8748C36.0726 14.1348 36.3293 13.5115 36.8426 13.0048C37.3559 12.4982 37.9793 12.2448 38.7126 12.2448C39.4526 12.2448 40.0759 12.4982 40.5826 13.0048C41.0959 13.5115 41.3526 14.1348 41.3526 14.8748C41.3526 15.6148 41.0959 16.2382 40.5826 16.7448C40.0759 17.2515 39.4526 17.5048 38.7126 17.5048ZM37.6026 16.0048C37.9026 16.3048 38.2726 16.4548 38.7126 16.4548C39.1526 16.4548 39.5226 16.3048 39.8226 16.0048C40.1226 15.7048 40.2726 15.3282 40.2726 14.8748C40.2726 14.4215 40.1226 14.0448 39.8226 13.7448C39.5226 13.4448 39.1526 13.2948 38.7126 13.2948C38.2726 13.2948 37.9026 13.4448 37.6026 13.7448C37.3026 14.0448 37.1526 14.4215 37.1526 14.8748C37.1526 15.3282 37.3026 15.7048 37.6026 16.0048ZM42.3292 17.3748V10.0748H43.4092V17.3748H42.3292ZM44.6631 17.3748V10.0748H45.7431V17.3748H44.6631ZM49.3571 17.5048C48.6238 17.5048 48.0005 17.2515 47.4871 16.7448C46.9738 16.2382 46.7171 15.6148 46.7171 14.8748C46.7171 14.1348 46.9738 13.5115 47.4871 13.0048C48.0005 12.4982 48.6238 12.2448 49.3571 12.2448C50.0971 12.2448 50.7205 12.4982 51.2271 13.0048C51.7405 13.5115 51.9971 14.1348 51.9971 14.8748C51.9971 15.6148 51.7405 16.2382 51.2271 16.7448C50.7205 17.2515 50.0971 17.5048 49.3571 17.5048ZM48.2471 16.0048C48.5471 16.3048 48.9171 16.4548 49.3571 16.4548C49.7971 16.4548 50.1671 16.3048 50.4671 16.0048C50.7671 15.7048 50.9171 15.3282 50.9171 14.8748C50.9171 14.4215 50.7671 14.0448 50.4671 13.7448C50.1671 13.4448 49.7971 13.2948 49.3571 13.2948C48.9171 13.2948 48.5471 13.4448 48.2471 13.7448C47.9471 14.0448 47.7971 14.4215 47.7971 14.8748C47.7971 15.3282 47.9471 15.7048 48.2471 16.0048ZM58.5384 12.3748H59.6784L58.1084 17.3748H57.0484L56.0084 14.0048L54.9584 17.3748H53.8984L52.3284 12.3748H53.4684L54.4384 15.8248L55.4884 12.3748H56.5184L57.5584 15.8248L58.5384 12.3748ZM61.141 13.7548C61.141 13.9215 61.231 14.0548 61.411 14.1548C61.5976 14.2482 61.821 14.3315 62.081 14.4048C62.3476 14.4715 62.6143 14.5515 62.881 14.6448C63.1476 14.7382 63.371 14.8982 63.551 15.1248C63.7376 15.3448 63.831 15.6248 63.831 15.9648C63.831 16.4448 63.6443 16.8215 63.271 17.0948C62.9043 17.3682 62.441 17.5048 61.881 17.5048C61.3876 17.5048 60.9643 17.4015 60.611 17.1948C60.2576 16.9882 60.001 16.7015 59.841 16.3348L60.771 15.7948C60.9443 16.2748 61.3143 16.5148 61.881 16.5148C62.4476 16.5148 62.731 16.3282 62.731 15.9548C62.731 15.7948 62.6376 15.6648 62.451 15.5648C62.271 15.4648 62.0476 15.3815 61.781 15.3148C61.521 15.2415 61.2576 15.1582 60.991 15.0648C60.7243 14.9715 60.4976 14.8182 60.311 14.6048C60.131 14.3848 60.041 14.1082 60.041 13.7748C60.041 13.3148 60.2143 12.9448 60.561 12.6648C60.9143 12.3848 61.351 12.2448 61.871 12.2448C62.2843 12.2448 62.651 12.3382 62.971 12.5248C63.2976 12.7048 63.5476 12.9582 63.721 13.2848L62.811 13.7948C62.6376 13.4148 62.3243 13.2248 61.871 13.2248C61.6643 13.2248 61.491 13.2715 61.351 13.3648C61.211 13.4515 61.141 13.5815 61.141 13.7548Z" fill="#242121"/>
<circle cx="12.532" cy="13.4241" r="12.532" fill="#FFBC65"/>
<path fill-rule="evenodd" clip-rule="evenodd" d="M11.6149 19.5389C9.07221 19.5389 6.90021 19.1542 6.90021 17.6142C6.90021 16.0742 9.05821 14.6735 11.6149 14.6735C14.1575 14.6735 16.3295 16.0609 16.3295 17.6002C16.3295 19.1395 14.1715 19.5389 11.6149 19.5389Z" stroke="white" stroke-width="1.5" stroke-linecap="round" stroke-linejoin="round"/>
<path fill-rule="evenodd" clip-rule="evenodd" d="M11.6149 12.4773C13.2836 12.4773 14.6369 11.124 14.6369 9.45533C14.6369 7.786 13.2836 6.43333 11.6149 6.43333C9.94622 6.43333 8.59289 7.786 8.59289 9.45533C8.58689 11.118 9.93089 12.4713 11.5936 12.4773H11.6149Z" stroke="white" stroke-width="1.5" stroke-linecap="round" stroke-linejoin="round"/>
<path d="M17.7542 10.4194V13.0927" stroke="white" stroke-width="1.5" stroke-linecap="round" stroke-linejoin="round"/>
<path d="M19.1184 11.7559H16.3918" stroke="white" stroke-width="1.5" stroke-linecap="round" stroke-linejoin="round"/>
</svg>
