<svg width="414" height="123" viewBox="0 0 414 123" fill="none" xmlns="http://www.w3.org/2000/svg">
<g opacity="0.4">
<path d="M33.9428 120.617C33.3961 120.617 32.9195 120.47 32.5128 120.177C32.1061 119.877 31.8195 119.46 31.6528 118.927L32.6928 118.497C32.8995 119.197 33.3161 119.547 33.9428 119.547C34.2895 119.547 34.5661 119.43 34.7728 119.197C34.9795 118.957 35.0828 118.644 35.0828 118.257V113.297H36.1928V118.217C36.1928 118.724 36.0961 119.157 35.9028 119.517C35.7095 119.877 35.4428 120.15 35.1028 120.337C34.7628 120.524 34.3761 120.617 33.9428 120.617ZM39.1306 120.617C38.764 120.617 38.4373 120.547 38.1506 120.407C37.864 120.26 37.6406 120.057 37.4806 119.797C37.3206 119.53 37.2406 119.23 37.2406 118.897C37.2406 118.37 37.4373 117.954 37.8306 117.647C38.2306 117.34 38.734 117.187 39.3406 117.187C39.6406 117.187 39.9106 117.217 40.1506 117.277C40.3906 117.33 40.5806 117.39 40.7206 117.457V117.197C40.7206 116.884 40.604 116.63 40.3706 116.437C40.1373 116.237 39.8373 116.137 39.4706 116.137C39.2106 116.137 38.964 116.194 38.7306 116.307C38.504 116.42 38.3206 116.577 38.1806 116.777L37.4106 116.187C37.6373 115.874 37.9306 115.63 38.2906 115.457C38.6506 115.284 39.0506 115.197 39.4906 115.197C40.2306 115.197 40.8006 115.38 41.2006 115.747C41.6006 116.107 41.8006 116.617 41.8006 117.277V120.457H40.7206V119.847H40.6706C40.524 120.067 40.3173 120.25 40.0506 120.397C39.784 120.544 39.4773 120.617 39.1306 120.617ZM39.3206 119.707C39.5873 119.707 39.8273 119.644 40.0406 119.517C40.254 119.39 40.4206 119.22 40.5406 119.007C40.6606 118.794 40.7206 118.564 40.7206 118.317C40.5673 118.23 40.3873 118.16 40.1806 118.107C39.9806 118.054 39.7706 118.027 39.5506 118.027C39.1373 118.027 38.834 118.11 38.6406 118.277C38.4473 118.437 38.3506 118.647 38.3506 118.907C38.3506 119.14 38.4406 119.334 38.6206 119.487C38.8006 119.634 39.034 119.707 39.3206 119.707ZM42.9994 115.357H44.0494V116.027H44.0994C44.246 115.787 44.4627 115.59 44.7494 115.437C45.0427 115.277 45.3527 115.197 45.6794 115.197C46.2994 115.197 46.7694 115.38 47.0894 115.747C47.416 116.107 47.5794 116.6 47.5794 117.227V120.457H46.4794V117.377C46.4794 116.977 46.3794 116.684 46.1794 116.497C45.986 116.31 45.716 116.217 45.3694 116.217C45.1227 116.217 44.9027 116.287 44.7094 116.427C44.516 116.56 44.366 116.74 44.2594 116.967C44.1527 117.194 44.0994 117.437 44.0994 117.697V120.457H42.9994V115.357Z" fill="black"/>
<path d="M64.2028 113.297H68.5528V114.367H65.3228V116.427H68.2328V117.487H65.3228V120.457H64.2028V113.297ZM71.5872 120.617C71.0872 120.617 70.6372 120.5 70.2372 120.267C69.8439 120.034 69.5339 119.714 69.3072 119.307C69.0872 118.894 68.9772 118.43 68.9772 117.917C68.9772 117.43 69.0839 116.98 69.2972 116.567C69.5172 116.147 69.8205 115.814 70.2072 115.567C70.5939 115.32 71.0339 115.197 71.5272 115.197C72.0405 115.197 72.4839 115.31 72.8572 115.537C73.2372 115.764 73.5239 116.074 73.7172 116.467C73.9172 116.86 74.0172 117.304 74.0172 117.797C74.0172 117.89 74.0072 118.007 73.9872 118.147H70.0772C70.1172 118.62 70.2839 118.987 70.5772 119.247C70.8772 119.5 71.2239 119.627 71.6172 119.627C71.9305 119.627 72.2005 119.557 72.4272 119.417C72.6605 119.27 72.8472 119.074 72.9872 118.827L73.9172 119.267C73.6772 119.687 73.3639 120.017 72.9772 120.257C72.5905 120.497 72.1272 120.617 71.5872 120.617ZM72.8972 117.307C72.8839 117.127 72.8272 116.95 72.7272 116.777C72.6272 116.597 72.4739 116.447 72.2672 116.327C72.0672 116.207 71.8205 116.147 71.5272 116.147C71.1739 116.147 70.8739 116.254 70.6272 116.467C70.3872 116.674 70.2205 116.954 70.1272 117.307H72.8972ZM77.7389 120.617C77.3789 120.617 77.0556 120.537 76.7689 120.377C76.4822 120.217 76.2656 120.024 76.1189 119.797H76.0689V120.457H75.0189V113.297H76.1189V115.307L76.0689 116.027H76.1189C76.2656 115.794 76.4822 115.597 76.7689 115.437C77.0556 115.277 77.3789 115.197 77.7389 115.197C78.1989 115.197 78.6156 115.314 78.9889 115.547C79.3622 115.78 79.6556 116.104 79.8689 116.517C80.0889 116.924 80.1989 117.387 80.1989 117.907C80.1989 118.427 80.0889 118.894 79.8689 119.307C79.6556 119.714 79.3622 120.034 78.9889 120.267C78.6156 120.5 78.1989 120.617 77.7389 120.617ZM77.5789 119.607C77.8456 119.607 78.0956 119.537 78.3289 119.397C78.5622 119.257 78.7489 119.057 78.8889 118.797C79.0289 118.537 79.0989 118.24 79.0989 117.907C79.0989 117.574 79.0289 117.28 78.8889 117.027C78.7489 116.767 78.5622 116.567 78.3289 116.427C78.0956 116.287 77.8456 116.217 77.5789 116.217C77.3122 116.217 77.0622 116.287 76.8289 116.427C76.6022 116.567 76.4189 116.767 76.2789 117.027C76.1389 117.28 76.0689 117.574 76.0689 117.907C76.0689 118.24 76.1389 118.537 76.2789 118.797C76.4189 119.057 76.6022 119.257 76.8289 119.397C77.0622 119.537 77.3122 119.607 77.5789 119.607Z" fill="black"/>
<path d="M97.2028 113.297H98.7228L100.783 118.727H100.843L102.903 113.297H104.423V120.457H103.313V116.447L103.373 115.157H103.313L101.263 120.457H100.363L98.3128 115.157H98.2528L98.3128 116.447V120.457H97.2028V113.297ZM107.334 120.617C106.967 120.617 106.64 120.547 106.354 120.407C106.067 120.26 105.844 120.057 105.684 119.797C105.524 119.53 105.444 119.23 105.444 118.897C105.444 118.37 105.64 117.954 106.034 117.647C106.434 117.34 106.937 117.187 107.544 117.187C107.844 117.187 108.114 117.217 108.354 117.277C108.594 117.33 108.784 117.39 108.924 117.457V117.197C108.924 116.884 108.807 116.63 108.574 116.437C108.34 116.237 108.04 116.137 107.674 116.137C107.414 116.137 107.167 116.194 106.934 116.307C106.707 116.42 106.524 116.577 106.384 116.777L105.614 116.187C105.84 115.874 106.134 115.63 106.494 115.457C106.854 115.284 107.254 115.197 107.694 115.197C108.434 115.197 109.004 115.38 109.404 115.747C109.804 116.107 110.004 116.617 110.004 117.277V120.457H108.924V119.847H108.874C108.727 120.067 108.52 120.25 108.254 120.397C107.987 120.544 107.68 120.617 107.334 120.617ZM107.524 119.707C107.79 119.707 108.03 119.644 108.244 119.517C108.457 119.39 108.624 119.22 108.744 119.007C108.864 118.794 108.924 118.564 108.924 118.317C108.77 118.23 108.59 118.16 108.384 118.107C108.184 118.054 107.974 118.027 107.754 118.027C107.34 118.027 107.037 118.11 106.844 118.277C106.65 118.437 106.554 118.647 106.554 118.907C106.554 119.14 106.644 119.334 106.824 119.487C107.004 119.634 107.237 119.707 107.524 119.707ZM111.203 115.357H112.253V116.107H112.303C112.416 115.847 112.613 115.634 112.893 115.467C113.173 115.294 113.469 115.207 113.783 115.207C114.029 115.207 114.236 115.24 114.403 115.307V116.447C114.109 116.34 113.846 116.287 113.613 116.287C113.359 116.287 113.133 116.354 112.933 116.487C112.739 116.62 112.586 116.8 112.473 117.027C112.359 117.247 112.303 117.49 112.303 117.757V120.457H111.203V115.357Z" fill="black"/>
<path d="M133.223 113.297H134.503L137.193 120.457H135.953L135.313 118.627H132.423L131.773 120.457H130.533L133.223 113.297ZM134.933 117.587L134.173 115.457L133.893 114.627H133.833L133.553 115.457L132.793 117.587H134.933ZM137.995 115.357H139.045V116.027H139.095C139.241 115.794 139.458 115.597 139.745 115.437C140.031 115.277 140.355 115.197 140.715 115.197C141.175 115.197 141.591 115.314 141.965 115.547C142.338 115.78 142.631 116.104 142.845 116.517C143.065 116.924 143.175 117.387 143.175 117.907C143.175 118.427 143.065 118.894 142.845 119.307C142.631 119.714 142.338 120.034 141.965 120.267C141.591 120.5 141.175 120.617 140.715 120.617C140.355 120.617 140.031 120.537 139.745 120.377C139.458 120.217 139.241 120.024 139.095 119.797H139.045L139.095 120.507V122.617H137.995V115.357ZM140.555 119.607C140.821 119.607 141.071 119.537 141.305 119.397C141.538 119.257 141.725 119.057 141.865 118.797C142.005 118.537 142.075 118.24 142.075 117.907C142.075 117.574 142.005 117.28 141.865 117.027C141.725 116.767 141.538 116.567 141.305 116.427C141.071 116.287 140.821 116.217 140.555 116.217C140.288 116.217 140.038 116.287 139.805 116.427C139.578 116.567 139.395 116.767 139.255 117.027C139.115 117.28 139.045 117.574 139.045 117.907C139.045 118.24 139.115 118.537 139.255 118.797C139.395 119.057 139.578 119.257 139.805 119.397C140.038 119.537 140.288 119.607 140.555 119.607ZM144.128 115.357H145.178V116.107H145.228C145.342 115.847 145.538 115.634 145.818 115.467C146.098 115.294 146.395 115.207 146.708 115.207C146.955 115.207 147.162 115.24 147.328 115.307V116.447C147.035 116.34 146.772 116.287 146.538 116.287C146.285 116.287 146.058 116.354 145.858 116.487C145.665 116.62 145.512 116.8 145.398 117.027C145.285 117.247 145.228 117.49 145.228 117.757V120.457H144.128V115.357Z" fill="black"/>
<path d="M164.203 113.297H165.723L167.783 118.727H167.843L169.903 113.297H171.423V120.457H170.313V116.447L170.373 115.157H170.313L168.263 120.457H167.363L165.313 115.157H165.253L165.313 116.447V120.457H164.203V113.297ZM174.334 120.617C173.967 120.617 173.64 120.547 173.354 120.407C173.067 120.26 172.844 120.057 172.684 119.797C172.524 119.53 172.444 119.23 172.444 118.897C172.444 118.37 172.64 117.954 173.034 117.647C173.434 117.34 173.937 117.187 174.544 117.187C174.844 117.187 175.114 117.217 175.354 117.277C175.594 117.33 175.784 117.39 175.924 117.457V117.197C175.924 116.884 175.807 116.63 175.574 116.437C175.34 116.237 175.04 116.137 174.674 116.137C174.414 116.137 174.167 116.194 173.934 116.307C173.707 116.42 173.524 116.577 173.384 116.777L172.614 116.187C172.84 115.874 173.134 115.63 173.494 115.457C173.854 115.284 174.254 115.197 174.694 115.197C175.434 115.197 176.004 115.38 176.404 115.747C176.804 116.107 177.004 116.617 177.004 117.277V120.457H175.924V119.847H175.874C175.727 120.067 175.52 120.25 175.254 120.397C174.987 120.544 174.68 120.617 174.334 120.617ZM174.524 119.707C174.79 119.707 175.03 119.644 175.244 119.517C175.457 119.39 175.624 119.22 175.744 119.007C175.864 118.794 175.924 118.564 175.924 118.317C175.77 118.23 175.59 118.16 175.384 118.107C175.184 118.054 174.974 118.027 174.754 118.027C174.34 118.027 174.037 118.11 173.844 118.277C173.65 118.437 173.554 118.647 173.554 118.907C173.554 119.14 173.644 119.334 173.824 119.487C174.004 119.634 174.237 119.707 174.524 119.707ZM179.665 120.177L177.545 115.357H178.775L180.215 118.827H180.255L181.655 115.357H182.865L179.715 122.617H178.555L179.665 120.177Z" fill="black"/>
<path d="M200.943 120.617C200.396 120.617 199.919 120.47 199.513 120.177C199.106 119.877 198.819 119.46 198.653 118.927L199.693 118.497C199.899 119.197 200.316 119.547 200.943 119.547C201.289 119.547 201.566 119.43 201.773 119.197C201.979 118.957 202.083 118.644 202.083 118.257V113.297H203.193V118.217C203.193 118.724 203.096 119.157 202.903 119.517C202.709 119.877 202.443 120.15 202.103 120.337C201.763 120.524 201.376 120.617 200.943 120.617ZM206.293 120.617C205.673 120.617 205.2 120.434 204.873 120.067C204.553 119.694 204.393 119.177 204.393 118.517V115.357H205.493V118.367C205.493 118.78 205.59 119.09 205.783 119.297C205.983 119.504 206.243 119.607 206.563 119.607C206.823 119.607 207.053 119.54 207.253 119.407C207.453 119.267 207.606 119.084 207.713 118.857C207.82 118.63 207.873 118.387 207.873 118.127V115.357H208.973V120.457H207.933V119.797H207.873C207.733 120.037 207.516 120.234 207.223 120.387C206.93 120.54 206.62 120.617 206.293 120.617ZM210.253 115.357H211.303V116.027H211.353C211.5 115.787 211.717 115.59 212.003 115.437C212.297 115.277 212.607 115.197 212.933 115.197C213.553 115.197 214.023 115.38 214.343 115.747C214.67 116.107 214.833 116.6 214.833 117.227V120.457H213.733V117.377C213.733 116.977 213.633 116.684 213.433 116.497C213.24 116.31 212.97 116.217 212.623 116.217C212.377 116.217 212.157 116.287 211.963 116.427C211.77 116.56 211.62 116.74 211.513 116.967C211.407 117.194 211.353 117.437 211.353 117.697V120.457H210.253V115.357Z" fill="black"/>
<path d="M233.943 120.617C233.396 120.617 232.919 120.47 232.513 120.177C232.106 119.877 231.819 119.46 231.653 118.927L232.693 118.497C232.899 119.197 233.316 119.547 233.943 119.547C234.289 119.547 234.566 119.43 234.773 119.197C234.979 118.957 235.083 118.644 235.083 118.257V113.297H236.193V118.217C236.193 118.724 236.096 119.157 235.903 119.517C235.709 119.877 235.443 120.15 235.103 120.337C234.763 120.524 234.376 120.617 233.943 120.617ZM239.293 120.617C238.673 120.617 238.2 120.434 237.873 120.067C237.553 119.694 237.393 119.177 237.393 118.517V115.357H238.493V118.367C238.493 118.78 238.59 119.09 238.783 119.297C238.983 119.504 239.243 119.607 239.563 119.607C239.823 119.607 240.053 119.54 240.253 119.407C240.453 119.267 240.606 119.084 240.713 118.857C240.82 118.63 240.873 118.387 240.873 118.127V115.357H241.973V120.457H240.933V119.797H240.873C240.733 120.037 240.516 120.234 240.223 120.387C239.93 120.54 239.62 120.617 239.293 120.617ZM243.253 113.297H244.353V120.457H243.253V113.297Z" fill="black"/>
<path d="M263.223 113.297H264.503L267.193 120.457H265.953L265.313 118.627H262.423L261.773 120.457H260.533L263.223 113.297ZM264.933 117.587L264.173 115.457L263.893 114.627H263.833L263.553 115.457L262.793 117.587H264.933ZM269.592 120.617C268.972 120.617 268.498 120.434 268.172 120.067C267.852 119.694 267.692 119.177 267.692 118.517V115.357H268.792V118.367C268.792 118.78 268.888 119.09 269.082 119.297C269.282 119.504 269.542 119.607 269.862 119.607C270.122 119.607 270.352 119.54 270.552 119.407C270.752 119.267 270.905 119.084 271.012 118.857C271.118 118.63 271.172 118.387 271.172 118.127V115.357H272.272V120.457H271.232V119.797H271.172C271.032 120.037 270.815 120.234 270.522 120.387C270.228 120.54 269.918 120.617 269.592 120.617ZM275.803 122.777C275.177 122.777 274.657 122.634 274.243 122.347C273.837 122.06 273.563 121.72 273.423 121.327L274.453 120.897C274.56 121.164 274.73 121.377 274.963 121.537C275.203 121.704 275.483 121.787 275.803 121.787C276.27 121.787 276.633 121.647 276.893 121.367C277.16 121.094 277.293 120.707 277.293 120.207V119.737H277.233C277.067 119.977 276.843 120.167 276.563 120.307C276.29 120.44 275.973 120.507 275.613 120.507C275.187 120.507 274.79 120.397 274.423 120.177C274.057 119.957 273.763 119.647 273.543 119.247C273.33 118.84 273.223 118.377 273.223 117.857C273.223 117.337 273.33 116.877 273.543 116.477C273.763 116.07 274.057 115.757 274.423 115.537C274.79 115.31 275.187 115.197 275.613 115.197C275.967 115.197 276.283 115.267 276.563 115.407C276.843 115.547 277.067 115.737 277.233 115.977H277.293V115.357H278.343V120.177C278.343 120.73 278.237 121.2 278.023 121.587C277.81 121.98 277.51 122.277 277.123 122.477C276.743 122.677 276.303 122.777 275.803 122.777ZM275.813 119.507C276.08 119.507 276.327 119.444 276.553 119.317C276.78 119.184 276.96 118.994 277.093 118.747C277.227 118.494 277.293 118.197 277.293 117.857C277.293 117.337 277.15 116.934 276.863 116.647C276.583 116.354 276.233 116.207 275.813 116.207C275.54 116.207 275.29 116.274 275.063 116.407C274.837 116.534 274.657 116.72 274.523 116.967C274.39 117.214 274.323 117.51 274.323 117.857C274.323 118.204 274.39 118.5 274.523 118.747C274.657 118.994 274.837 119.184 275.063 119.317C275.29 119.444 275.54 119.507 275.813 119.507Z" fill="black"/>
<path d="M297.273 120.617C296.679 120.617 296.146 120.444 295.673 120.097C295.199 119.75 294.873 119.264 294.693 118.637L295.753 118.207C295.859 118.6 296.046 118.924 296.313 119.177C296.586 119.424 296.913 119.547 297.293 119.547C297.646 119.547 297.946 119.457 298.193 119.277C298.439 119.09 298.563 118.837 298.563 118.517C298.563 118.224 298.453 117.984 298.233 117.797C298.019 117.604 297.643 117.41 297.103 117.217L296.653 117.057C296.173 116.89 295.769 116.65 295.443 116.337C295.116 116.024 294.953 115.61 294.953 115.097C294.953 114.744 295.049 114.417 295.243 114.117C295.436 113.817 295.703 113.58 296.043 113.407C296.389 113.227 296.779 113.137 297.213 113.137C297.839 113.137 298.339 113.29 298.713 113.597C299.086 113.897 299.336 114.237 299.463 114.617L298.453 115.047C298.379 114.82 298.239 114.62 298.033 114.447C297.826 114.274 297.559 114.187 297.233 114.187C296.906 114.187 296.629 114.27 296.403 114.437C296.183 114.604 296.073 114.817 296.073 115.077C296.073 115.324 296.173 115.527 296.373 115.687C296.573 115.847 296.886 116 297.313 116.147L297.763 116.297C298.376 116.51 298.849 116.79 299.183 117.137C299.523 117.477 299.693 117.934 299.693 118.507C299.693 118.974 299.573 119.367 299.333 119.687C299.093 120 298.786 120.234 298.413 120.387C298.046 120.54 297.666 120.617 297.273 120.617ZM303.124 120.617C302.624 120.617 302.174 120.5 301.774 120.267C301.381 120.034 301.071 119.714 300.844 119.307C300.624 118.894 300.514 118.43 300.514 117.917C300.514 117.43 300.621 116.98 300.834 116.567C301.054 116.147 301.358 115.814 301.744 115.567C302.131 115.32 302.571 115.197 303.064 115.197C303.578 115.197 304.021 115.31 304.394 115.537C304.774 115.764 305.061 116.074 305.254 116.467C305.454 116.86 305.554 117.304 305.554 117.797C305.554 117.89 305.544 118.007 305.524 118.147H301.614C301.654 118.62 301.821 118.987 302.114 119.247C302.414 119.5 302.761 119.627 303.154 119.627C303.468 119.627 303.738 119.557 303.964 119.417C304.198 119.27 304.384 119.074 304.524 118.827L305.454 119.267C305.214 119.687 304.901 120.017 304.514 120.257C304.128 120.497 303.664 120.617 303.124 120.617ZM304.434 117.307C304.421 117.127 304.364 116.95 304.264 116.777C304.164 116.597 304.011 116.447 303.804 116.327C303.604 116.207 303.358 116.147 303.064 116.147C302.711 116.147 302.411 116.254 302.164 116.467C301.924 116.674 301.758 116.954 301.664 117.307H304.434ZM306.516 115.357H307.566V116.027H307.616C307.763 115.794 307.979 115.597 308.266 115.437C308.553 115.277 308.876 115.197 309.236 115.197C309.696 115.197 310.113 115.314 310.486 115.547C310.859 115.78 311.153 116.104 311.366 116.517C311.586 116.924 311.696 117.387 311.696 117.907C311.696 118.427 311.586 118.894 311.366 119.307C311.153 119.714 310.859 120.034 310.486 120.267C310.113 120.5 309.696 120.617 309.236 120.617C308.876 120.617 308.553 120.537 308.266 120.377C307.979 120.217 307.763 120.024 307.616 119.797H307.566L307.616 120.507V122.617H306.516V115.357ZM309.076 119.607C309.343 119.607 309.593 119.537 309.826 119.397C310.059 119.257 310.246 119.057 310.386 118.797C310.526 118.537 310.596 118.24 310.596 117.907C310.596 117.574 310.526 117.28 310.386 117.027C310.246 116.767 310.059 116.567 309.826 116.427C309.593 116.287 309.343 116.217 309.076 116.217C308.809 116.217 308.559 116.287 308.326 116.427C308.099 116.567 307.916 116.767 307.776 117.027C307.636 117.28 307.566 117.574 307.566 117.907C307.566 118.24 307.636 118.537 307.776 118.797C307.916 119.057 308.099 119.257 308.326 119.397C308.559 119.537 308.809 119.607 309.076 119.607Z" fill="black"/>
<path d="M331.553 120.617C330.859 120.617 330.229 120.454 329.663 120.127C329.096 119.794 328.649 119.34 328.323 118.767C328.003 118.194 327.843 117.564 327.843 116.877C327.843 116.19 328.003 115.564 328.323 114.997C328.649 114.424 329.096 113.97 329.663 113.637C330.229 113.304 330.859 113.137 331.553 113.137C332.246 113.137 332.873 113.304 333.433 113.637C333.999 113.97 334.446 114.424 334.773 114.997C335.099 115.564 335.263 116.19 335.263 116.877C335.263 117.564 335.099 118.194 334.773 118.767C334.453 119.34 334.009 119.794 333.443 120.127C332.876 120.454 332.246 120.617 331.553 120.617ZM331.553 119.547C332.026 119.547 332.459 119.434 332.853 119.207C333.246 118.98 333.556 118.667 333.783 118.267C334.009 117.86 334.123 117.397 334.123 116.877C334.123 116.357 334.009 115.897 333.783 115.497C333.556 115.09 333.246 114.774 332.853 114.547C332.459 114.32 332.026 114.207 331.553 114.207C331.079 114.207 330.646 114.32 330.253 114.547C329.859 114.774 329.546 115.09 329.313 115.497C329.086 115.897 328.973 116.357 328.973 116.877C328.973 117.397 329.086 117.86 329.313 118.267C329.546 118.667 329.859 118.98 330.253 119.207C330.646 119.434 331.079 119.547 331.553 119.547ZM338.723 120.617C338.216 120.617 337.759 120.5 337.353 120.267C336.953 120.034 336.639 119.714 336.413 119.307C336.193 118.894 336.083 118.427 336.083 117.907C336.083 117.387 336.193 116.924 336.413 116.517C336.639 116.104 336.953 115.78 337.353 115.547C337.759 115.314 338.216 115.197 338.723 115.197C339.283 115.197 339.759 115.324 340.153 115.577C340.546 115.83 340.826 116.174 340.993 116.607L339.983 117.027C339.756 116.487 339.326 116.217 338.693 116.217C338.419 116.217 338.166 116.287 337.933 116.427C337.706 116.567 337.523 116.767 337.383 117.027C337.249 117.28 337.183 117.574 337.183 117.907C337.183 118.24 337.249 118.537 337.383 118.797C337.523 119.057 337.706 119.257 337.933 119.397C338.166 119.537 338.419 119.607 338.693 119.607C339.013 119.607 339.286 119.537 339.513 119.397C339.746 119.25 339.923 119.044 340.043 118.777L341.033 119.207C340.839 119.64 340.546 119.984 340.153 120.237C339.759 120.49 339.283 120.617 338.723 120.617ZM344.009 120.537C343.783 120.537 343.569 120.5 343.369 120.427C343.169 120.354 343.006 120.257 342.879 120.137C342.593 119.85 342.449 119.46 342.449 118.967V116.327H341.559V115.357H342.449V113.917H343.549V115.357H344.789V116.327H343.549V118.727C343.549 119 343.603 119.194 343.709 119.307C343.809 119.44 343.983 119.507 344.229 119.507C344.343 119.507 344.443 119.494 344.529 119.467C344.616 119.434 344.709 119.384 344.809 119.317V120.387C344.589 120.487 344.323 120.537 344.009 120.537Z" fill="black"/>
<path d="M361.203 113.297H362.533L365.733 118.507H365.793L365.733 117.127V113.297H366.843V120.457H365.673L362.313 114.977H362.253L362.313 116.357V120.457H361.203V113.297ZM370.688 120.617C370.175 120.617 369.715 120.5 369.308 120.267C368.902 120.027 368.585 119.7 368.358 119.287C368.132 118.874 368.018 118.414 368.018 117.907C368.018 117.4 368.132 116.94 368.358 116.527C368.585 116.114 368.902 115.79 369.308 115.557C369.715 115.317 370.175 115.197 370.688 115.197C371.202 115.197 371.662 115.317 372.068 115.557C372.475 115.797 372.792 116.124 373.018 116.537C373.245 116.95 373.358 117.407 373.358 117.907C373.358 118.414 373.245 118.874 373.018 119.287C372.792 119.7 372.475 120.027 372.068 120.267C371.662 120.5 371.202 120.617 370.688 120.617ZM370.688 119.607C370.968 119.607 371.228 119.54 371.468 119.407C371.708 119.267 371.898 119.07 372.038 118.817C372.185 118.557 372.258 118.254 372.258 117.907C372.258 117.56 372.185 117.26 372.038 117.007C371.898 116.754 371.708 116.56 371.468 116.427C371.228 116.287 370.968 116.217 370.688 116.217C370.408 116.217 370.148 116.287 369.908 116.427C369.668 116.56 369.475 116.754 369.328 117.007C369.188 117.26 369.118 117.56 369.118 117.907C369.118 118.254 369.188 118.557 369.328 118.817C369.475 119.07 369.668 119.267 369.908 119.407C370.148 119.54 370.408 119.607 370.688 119.607ZM373.656 115.357H374.886L376.296 119.037H376.336L377.776 115.357H378.976L376.856 120.457H375.756L373.656 115.357Z" fill="black"/>
<path d="M395.203 113.297H397.493C398.233 113.297 398.879 113.447 399.433 113.747C399.986 114.047 400.409 114.47 400.703 115.017C401.003 115.557 401.153 116.177 401.153 116.877C401.153 117.577 401.003 118.2 400.703 118.747C400.409 119.287 399.986 119.707 399.433 120.007C398.879 120.307 398.233 120.457 397.493 120.457H395.203V113.297ZM397.473 119.387C398.273 119.387 398.896 119.167 399.343 118.727C399.796 118.28 400.023 117.664 400.023 116.877C400.023 116.097 399.796 115.484 399.343 115.037C398.896 114.59 398.273 114.367 397.473 114.367H396.323V119.387H397.473ZM404.433 120.617C403.933 120.617 403.483 120.5 403.083 120.267C402.69 120.034 402.38 119.714 402.153 119.307C401.933 118.894 401.823 118.43 401.823 117.917C401.823 117.43 401.93 116.98 402.143 116.567C402.363 116.147 402.666 115.814 403.053 115.567C403.44 115.32 403.88 115.197 404.373 115.197C404.886 115.197 405.33 115.31 405.703 115.537C406.083 115.764 406.37 116.074 406.563 116.467C406.763 116.86 406.863 117.304 406.863 117.797C406.863 117.89 406.853 118.007 406.833 118.147H402.923C402.963 118.62 403.13 118.987 403.423 119.247C403.723 119.5 404.07 119.627 404.463 119.627C404.776 119.627 405.046 119.557 405.273 119.417C405.506 119.27 405.693 119.074 405.833 118.827L406.763 119.267C406.523 119.687 406.21 120.017 405.823 120.257C405.436 120.497 404.973 120.617 404.433 120.617ZM405.743 117.307C405.73 117.127 405.673 116.95 405.573 116.777C405.473 116.597 405.32 116.447 405.113 116.327C404.913 116.207 404.666 116.147 404.373 116.147C404.02 116.147 403.72 116.254 403.473 116.467C403.233 116.674 403.066 116.954 402.973 117.307H405.743ZM410.273 120.617C409.767 120.617 409.31 120.5 408.903 120.267C408.503 120.034 408.19 119.714 407.963 119.307C407.743 118.894 407.633 118.427 407.633 117.907C407.633 117.387 407.743 116.924 407.963 116.517C408.19 116.104 408.503 115.78 408.903 115.547C409.31 115.314 409.767 115.197 410.273 115.197C410.833 115.197 411.31 115.324 411.703 115.577C412.097 115.83 412.377 116.174 412.543 116.607L411.533 117.027C411.307 116.487 410.877 116.217 410.243 116.217C409.97 116.217 409.717 116.287 409.483 116.427C409.257 116.567 409.073 116.767 408.933 117.027C408.8 117.28 408.733 117.574 408.733 117.907C408.733 118.24 408.8 118.537 408.933 118.797C409.073 119.057 409.257 119.257 409.483 119.397C409.717 119.537 409.97 119.607 410.243 119.607C410.563 119.607 410.837 119.537 411.063 119.397C411.297 119.25 411.473 119.044 411.593 118.777L412.583 119.207C412.39 119.64 412.097 119.984 411.703 120.237C411.31 120.49 410.833 120.617 410.273 120.617Z" fill="black"/>
</g>
<g opacity="0.4">
<path d="M5.31576 44.5956H2.11576V43.7356L5.22576 39.1156H6.41576V43.5756H7.28576V44.5956H6.41576V45.9556H5.31576V44.5956ZM5.31576 43.5756V40.7456H5.25576L3.34576 43.5756H5.31576ZM11.079 46.1156C10.519 46.1156 10.0257 45.9589 9.59904 45.6456C9.17238 45.3256 8.84238 44.8956 8.60904 44.3556C8.38238 43.8089 8.26904 43.2022 8.26904 42.5356C8.26904 41.8622 8.38238 41.2556 8.60904 40.7156C8.84238 40.1689 9.17238 39.7389 9.59904 39.4256C10.0257 39.1122 10.519 38.9556 11.079 38.9556C11.639 38.9556 12.129 39.1122 12.549 39.4256C12.9757 39.7389 13.3024 40.1689 13.529 40.7156C13.7624 41.2556 13.879 41.8622 13.879 42.5356C13.879 43.2022 13.7624 43.8089 13.529 44.3556C13.3024 44.8956 12.9757 45.3256 12.549 45.6456C12.1224 45.9589 11.6324 46.1156 11.079 46.1156ZM11.079 45.0756C11.419 45.0756 11.7157 44.9656 11.969 44.7456C12.229 44.5189 12.4257 44.2156 12.559 43.8356C12.699 43.4489 12.769 43.0156 12.769 42.5356C12.769 42.0556 12.699 41.6222 12.559 41.2356C12.4257 40.8489 12.229 40.5456 11.969 40.3256C11.7157 40.1056 11.419 39.9956 11.079 39.9956C10.7324 39.9956 10.4324 40.1056 10.179 40.3256C9.92571 40.5456 9.72904 40.8489 9.58904 41.2356C9.45571 41.6222 9.38904 42.0556 9.38904 42.5356C9.38904 43.0156 9.45571 43.4489 9.58904 43.8356C9.72904 44.2156 9.92571 44.5189 10.179 44.7456C10.4324 44.9656 10.7324 45.0756 11.079 45.0756ZM17.7001 46.1156C17.1401 46.1156 16.6468 45.9589 16.2201 45.6456C15.7935 45.3256 15.4635 44.8956 15.2301 44.3556C15.0035 43.8089 14.8901 43.2022 14.8901 42.5356C14.8901 41.8622 15.0035 41.2556 15.2301 40.7156C15.4635 40.1689 15.7935 39.7389 16.2201 39.4256C16.6468 39.1122 17.1401 38.9556 17.7001 38.9556C18.2601 38.9556 18.7501 39.1122 19.1701 39.4256C19.5968 39.7389 19.9235 40.1689 20.1501 40.7156C20.3835 41.2556 20.5001 41.8622 20.5001 42.5356C20.5001 43.2022 20.3835 43.8089 20.1501 44.3556C19.9235 44.8956 19.5968 45.3256 19.1701 45.6456C18.7435 45.9589 18.2535 46.1156 17.7001 46.1156ZM17.7001 45.0756C18.0401 45.0756 18.3368 44.9656 18.5901 44.7456C18.8501 44.5189 19.0468 44.2156 19.1801 43.8356C19.3201 43.4489 19.3901 43.0156 19.3901 42.5356C19.3901 42.0556 19.3201 41.6222 19.1801 41.2356C19.0468 40.8489 18.8501 40.5456 18.5901 40.3256C18.3368 40.1056 18.0401 39.9956 17.7001 39.9956C17.3535 39.9956 17.0535 40.1056 16.8001 40.3256C16.5468 40.5456 16.3501 40.8489 16.2101 41.2356C16.0768 41.6222 16.0101 42.0556 16.0101 42.5356C16.0101 43.0156 16.0768 43.4489 16.2101 43.8356C16.3501 44.2156 16.5468 44.5189 16.8001 44.7456C17.0535 44.9656 17.3535 45.0756 17.7001 45.0756ZM21.6512 38.7956H22.7512V42.9656H22.7812L24.8712 40.8556H26.2512V40.9156L24.2712 42.8856L26.3112 45.8956V45.9556H25.0012L23.5012 43.6456L22.7512 44.3756V45.9556H21.6512V38.7956Z" fill="black"/>
<path d="M4.97193 65.5861C4.4586 65.5861 3.98193 65.4395 3.54193 65.1461C3.10193 64.8461 2.7986 64.4095 2.63193 63.8361L3.65193 63.4161C3.74527 63.7695 3.90527 64.0428 4.13193 64.2361C4.36527 64.4295 4.64527 64.5261 4.97193 64.5261C5.30527 64.5261 5.59193 64.4261 5.83193 64.2261C6.07193 64.0195 6.19193 63.7595 6.19193 63.4461C6.19193 63.1261 6.06527 62.8661 5.81193 62.6661C5.5586 62.4595 5.24193 62.3561 4.86193 62.3561H4.27193V61.3461H4.80193C5.1286 61.3461 5.40193 61.2595 5.62193 61.0861C5.8486 60.9061 5.96193 60.6628 5.96193 60.3561C5.96193 60.0828 5.86193 59.8661 5.66193 59.7061C5.46193 59.5395 5.2086 59.4561 4.90193 59.4561C4.60193 59.4561 4.36193 59.5361 4.18193 59.6961C4.0086 59.8561 3.88193 60.0528 3.80193 60.2861L2.79193 59.8661C2.92527 59.4861 3.17193 59.1528 3.53193 58.8661C3.89193 58.5728 4.35193 58.4261 4.91193 58.4261C5.32527 58.4261 5.69527 58.5061 6.02193 58.6661C6.35527 58.8261 6.61527 59.0495 6.80193 59.3361C6.9886 59.6161 7.08193 59.9328 7.08193 60.2861C7.08193 60.6461 6.99527 60.9528 6.82193 61.2061C6.6486 61.4528 6.43527 61.6428 6.18193 61.7761V61.8361C6.51527 61.9761 6.7886 62.1895 7.00193 62.4761C7.21527 62.7628 7.32193 63.1061 7.32193 63.5061C7.32193 63.9061 7.2186 64.2628 7.01193 64.5761C6.81193 64.8895 6.53193 65.1361 6.17193 65.3161C5.8186 65.4961 5.4186 65.5861 4.97193 65.5861ZM11.079 65.5861C10.519 65.5861 10.0257 65.4295 9.59904 65.1161C9.17238 64.7961 8.84238 64.3661 8.60904 63.8261C8.38238 63.2795 8.26904 62.6728 8.26904 62.0061C8.26904 61.3328 8.38238 60.7261 8.60904 60.1861C8.84238 59.6395 9.17238 59.2095 9.59904 58.8961C10.0257 58.5828 10.519 58.4261 11.079 58.4261C11.639 58.4261 12.129 58.5828 12.549 58.8961C12.9757 59.2095 13.3024 59.6395 13.529 60.1861C13.7624 60.7261 13.879 61.3328 13.879 62.0061C13.879 62.6728 13.7624 63.2795 13.529 63.8261C13.3024 64.3661 12.9757 64.7961 12.549 65.1161C12.1224 65.4295 11.6324 65.5861 11.079 65.5861ZM11.079 64.5461C11.419 64.5461 11.7157 64.4361 11.969 64.2161C12.229 63.9895 12.4257 63.6861 12.559 63.3061C12.699 62.9195 12.769 62.4861 12.769 62.0061C12.769 61.5261 12.699 61.0928 12.559 60.7061C12.4257 60.3195 12.229 60.0161 11.969 59.7961C11.7157 59.5761 11.419 59.4661 11.079 59.4661C10.7324 59.4661 10.4324 59.5761 10.179 59.7961C9.92571 60.0161 9.72904 60.3195 9.58904 60.7061C9.45571 61.0928 9.38904 61.5261 9.38904 62.0061C9.38904 62.4861 9.45571 62.9195 9.58904 63.3061C9.72904 63.6861 9.92571 63.9895 10.179 64.2161C10.4324 64.4361 10.7324 64.5461 11.079 64.5461ZM17.7001 65.5861C17.1401 65.5861 16.6468 65.4295 16.2201 65.1161C15.7935 64.7961 15.4635 64.3661 15.2301 63.8261C15.0035 63.2795 14.8901 62.6728 14.8901 62.0061C14.8901 61.3328 15.0035 60.7261 15.2301 60.1861C15.4635 59.6395 15.7935 59.2095 16.2201 58.8961C16.6468 58.5828 17.1401 58.4261 17.7001 58.4261C18.2601 58.4261 18.7501 58.5828 19.1701 58.8961C19.5968 59.2095 19.9235 59.6395 20.1501 60.1861C20.3835 60.7261 20.5001 61.3328 20.5001 62.0061C20.5001 62.6728 20.3835 63.2795 20.1501 63.8261C19.9235 64.3661 19.5968 64.7961 19.1701 65.1161C18.7435 65.4295 18.2535 65.5861 17.7001 65.5861ZM17.7001 64.5461C18.0401 64.5461 18.3368 64.4361 18.5901 64.2161C18.8501 63.9895 19.0468 63.6861 19.1801 63.3061C19.3201 62.9195 19.3901 62.4861 19.3901 62.0061C19.3901 61.5261 19.3201 61.0928 19.1801 60.7061C19.0468 60.3195 18.8501 60.0161 18.5901 59.7961C18.3368 59.5761 18.0401 59.4661 17.7001 59.4661C17.3535 59.4661 17.0535 59.5761 16.8001 59.7961C16.5468 60.0161 16.3501 60.3195 16.2101 60.7061C16.0768 61.0928 16.0101 61.5261 16.0101 62.0061C16.0101 62.4861 16.0768 62.9195 16.2101 63.3061C16.3501 63.6861 16.5468 63.9895 16.8001 64.2161C17.0535 64.4361 17.3535 64.5461 17.7001 64.5461ZM21.6512 58.2661H22.7512V62.4361H22.7812L24.8712 60.3261H26.2512V60.3861L24.2712 62.3561L26.3112 65.3661V65.4261H25.0012L23.5012 63.1161L22.7512 63.8461V65.4261H21.6512V58.2661Z" fill="black"/>
<path d="M2.81936 83.8567C3.03269 83.6434 3.45269 83.2234 4.07936 82.5967C4.70602 81.9634 5.12269 81.5334 5.32936 81.3067C5.60936 81.0067 5.79936 80.7634 5.89936 80.5767C6.00602 80.3901 6.05936 80.1667 6.05936 79.9067C6.05936 79.6467 5.95936 79.4201 5.75936 79.2267C5.55936 79.0334 5.28936 78.9367 4.94936 78.9367C4.63602 78.9367 4.37936 79.0301 4.17936 79.2167C3.98602 79.3967 3.85936 79.6067 3.79936 79.8467L2.79936 79.4367C2.86602 79.1967 2.98936 78.9601 3.16936 78.7267C3.35602 78.4934 3.60269 78.2967 3.90936 78.1367C4.21602 77.9767 4.56936 77.8967 4.96936 77.8967C5.40269 77.8967 5.78602 77.9867 6.11936 78.1667C6.45936 78.3401 6.71936 78.5801 6.89936 78.8867C7.08602 79.1867 7.17936 79.5201 7.17936 79.8867C7.17936 80.2801 7.07602 80.6601 6.86936 81.0267C6.66936 81.3867 6.41269 81.7234 6.09936 82.0367C5.96602 82.1634 5.62936 82.4967 5.08936 83.0367C4.54269 83.5834 4.26936 83.8567 4.26936 83.8567L4.28936 83.8967H7.26936V84.8967H2.81936V83.8567ZM11.079 85.0567C10.519 85.0567 10.0257 84.9001 9.59904 84.5867C9.17238 84.2667 8.84238 83.8367 8.60904 83.2967C8.38238 82.7501 8.26904 82.1434 8.26904 81.4767C8.26904 80.8034 8.38238 80.1967 8.60904 79.6567C8.84238 79.1101 9.17238 78.6801 9.59904 78.3667C10.0257 78.0534 10.519 77.8967 11.079 77.8967C11.639 77.8967 12.129 78.0534 12.549 78.3667C12.9757 78.6801 13.3024 79.1101 13.529 79.6567C13.7624 80.1967 13.879 80.8034 13.879 81.4767C13.879 82.1434 13.7624 82.7501 13.529 83.2967C13.3024 83.8367 12.9757 84.2667 12.549 84.5867C12.1224 84.9001 11.6324 85.0567 11.079 85.0567ZM11.079 84.0167C11.419 84.0167 11.7157 83.9067 11.969 83.6867C12.229 83.4601 12.4257 83.1567 12.559 82.7767C12.699 82.3901 12.769 81.9567 12.769 81.4767C12.769 80.9967 12.699 80.5634 12.559 80.1767C12.4257 79.7901 12.229 79.4867 11.969 79.2667C11.7157 79.0467 11.419 78.9367 11.079 78.9367C10.7324 78.9367 10.4324 79.0467 10.179 79.2667C9.92571 79.4867 9.72904 79.7901 9.58904 80.1767C9.45571 80.5634 9.38904 80.9967 9.38904 81.4767C9.38904 81.9567 9.45571 82.3901 9.58904 82.7767C9.72904 83.1567 9.92571 83.4601 10.179 83.6867C10.4324 83.9067 10.7324 84.0167 11.079 84.0167ZM17.7001 85.0567C17.1401 85.0567 16.6468 84.9001 16.2201 84.5867C15.7935 84.2667 15.4635 83.8367 15.2301 83.2967C15.0035 82.7501 14.8901 82.1434 14.8901 81.4767C14.8901 80.8034 15.0035 80.1967 15.2301 79.6567C15.4635 79.1101 15.7935 78.6801 16.2201 78.3667C16.6468 78.0534 17.1401 77.8967 17.7001 77.8967C18.2601 77.8967 18.7501 78.0534 19.1701 78.3667C19.5968 78.6801 19.9235 79.1101 20.1501 79.6567C20.3835 80.1967 20.5001 80.8034 20.5001 81.4767C20.5001 82.1434 20.3835 82.7501 20.1501 83.2967C19.9235 83.8367 19.5968 84.2667 19.1701 84.5867C18.7435 84.9001 18.2535 85.0567 17.7001 85.0567ZM17.7001 84.0167C18.0401 84.0167 18.3368 83.9067 18.5901 83.6867C18.8501 83.4601 19.0468 83.1567 19.1801 82.7767C19.3201 82.3901 19.3901 81.9567 19.3901 81.4767C19.3901 80.9967 19.3201 80.5634 19.1801 80.1767C19.0468 79.7901 18.8501 79.4867 18.5901 79.2667C18.3368 79.0467 18.0401 78.9367 17.7001 78.9367C17.3535 78.9367 17.0535 79.0467 16.8001 79.2667C16.5468 79.4867 16.3501 79.7901 16.2101 80.1767C16.0768 80.5634 16.0101 80.9967 16.0101 81.4767C16.0101 81.9567 16.0768 82.3901 16.2101 82.7767C16.3501 83.1567 16.5468 83.4601 16.8001 83.6867C17.0535 83.9067 17.3535 84.0167 17.7001 84.0167ZM21.6512 77.7367H22.7512V81.9067H22.7812L24.8712 79.7967H26.2512V79.8567L24.2712 81.8267L26.3112 84.8367V84.8967H25.0012L23.5012 82.5867L22.7512 83.3167V84.8967H21.6512V77.7367Z" fill="black"/>
<path d="M5.78795 99.0173L4.66795 99.8273L4.10795 98.9773L6.11795 97.5273H6.88795V104.367H5.78795V99.0173ZM11.079 104.527C10.519 104.527 10.0257 104.371 9.59904 104.057C9.17238 103.737 8.84238 103.307 8.60904 102.767C8.38238 102.221 8.26904 101.614 8.26904 100.947C8.26904 100.274 8.38238 99.6673 8.60904 99.1273C8.84238 98.5806 9.17238 98.1506 9.59904 97.8373C10.0257 97.524 10.519 97.3673 11.079 97.3673C11.639 97.3673 12.129 97.524 12.549 97.8373C12.9757 98.1506 13.3024 98.5806 13.529 99.1273C13.7624 99.6673 13.879 100.274 13.879 100.947C13.879 101.614 13.7624 102.221 13.529 102.767C13.3024 103.307 12.9757 103.737 12.549 104.057C12.1224 104.371 11.6324 104.527 11.079 104.527ZM11.079 103.487C11.419 103.487 11.7157 103.377 11.969 103.157C12.229 102.931 12.4257 102.627 12.559 102.247C12.699 101.861 12.769 101.427 12.769 100.947C12.769 100.467 12.699 100.034 12.559 99.6473C12.4257 99.2606 12.229 98.9573 11.969 98.7373C11.7157 98.5173 11.419 98.4073 11.079 98.4073C10.7324 98.4073 10.4324 98.5173 10.179 98.7373C9.92571 98.9573 9.72904 99.2606 9.58904 99.6473C9.45571 100.034 9.38904 100.467 9.38904 100.947C9.38904 101.427 9.45571 101.861 9.58904 102.247C9.72904 102.627 9.92571 102.931 10.179 103.157C10.4324 103.377 10.7324 103.487 11.079 103.487ZM17.7001 104.527C17.1401 104.527 16.6468 104.371 16.2201 104.057C15.7935 103.737 15.4635 103.307 15.2301 102.767C15.0035 102.221 14.8901 101.614 14.8901 100.947C14.8901 100.274 15.0035 99.6673 15.2301 99.1273C15.4635 98.5806 15.7935 98.1506 16.2201 97.8373C16.6468 97.524 17.1401 97.3673 17.7001 97.3673C18.2601 97.3673 18.7501 97.524 19.1701 97.8373C19.5968 98.1506 19.9235 98.5806 20.1501 99.1273C20.3835 99.6673 20.5001 100.274 20.5001 100.947C20.5001 101.614 20.3835 102.221 20.1501 102.767C19.9235 103.307 19.5968 103.737 19.1701 104.057C18.7435 104.371 18.2535 104.527 17.7001 104.527ZM17.7001 103.487C18.0401 103.487 18.3368 103.377 18.5901 103.157C18.8501 102.931 19.0468 102.627 19.1801 102.247C19.3201 101.861 19.3901 101.427 19.3901 100.947C19.3901 100.467 19.3201 100.034 19.1801 99.6473C19.0468 99.2606 18.8501 98.9573 18.5901 98.7373C18.3368 98.5173 18.0401 98.4073 17.7001 98.4073C17.3535 98.4073 17.0535 98.5173 16.8001 98.7373C16.5468 98.9573 16.3501 99.2606 16.2101 99.6473C16.0768 100.034 16.0101 100.467 16.0101 100.947C16.0101 101.427 16.0768 101.861 16.2101 102.247C16.3501 102.627 16.5468 102.931 16.8001 103.157C17.0535 103.377 17.3535 103.487 17.7001 103.487ZM21.6512 97.2073H22.7512V101.377H22.7812L24.8712 99.2673H26.2512V99.3273L24.2712 101.297L26.3112 104.307V104.367H25.0012L23.5012 102.057L22.7512 102.787V104.367H21.6512V97.2073Z" fill="black"/>
</g>
<path d="M34 102.671H412.214" stroke="#DCE3EB" stroke-width="0.631372" stroke-linecap="round" stroke-dasharray="1.89 2.53"/>
<path d="M34 83.0986H412.214" stroke="#DCE3EB" stroke-width="0.631372" stroke-linecap="round" stroke-dasharray="1.89 2.53"/>
<path d="M34 63.5259H412.214" stroke="#DCE3EB" stroke-width="0.631372" stroke-linecap="round" stroke-dasharray="1.89 2.53"/>
<path d="M34 43.9536H412.214" stroke="#DCE3EB" stroke-width="0.631372" stroke-linecap="round" stroke-dasharray="1.89 2.53"/>
<path d="M48.7191 90.8452L36.4546 93.4469V102.987H413.588V59.6244L390.811 73.5003L375.042 60.4917L355.769 73.934L340.877 68.7305L322.042 73.5003L309.778 60.9253L299.703 45.5317L281.744 58.974H264.662L252.397 66.7792H237.505L225.678 49.6511L215.166 78.487H203.777L186.257 69.1641H172.678L154.281 84.7745H138.513L131.942 97.7831L123.182 78.487H110.48L105.223 82.6064H93.3969L79.3803 88.4603L72.8101 70.6818H57.4794L48.7191 90.8452Z" fill="url(#paint0_linear_0_265)"/>
<path d="M36.4546 93.0078L48.7191 90.4299L57.4794 70.4513H72.8101L79.3803 88.0668L93.3969 82.2666H105.223L110.48 78.1849H123.182L131.942 97.3042L138.513 84.4148H154.281L172.678 68.9475H186.257L203.777 78.1849H215.166L225.678 49.6134L237.505 66.5845H252.397L264.662 58.8508H281.744L299.703 45.5317L309.778 60.7842L322.042 73.244L340.877 68.5179L355.769 73.6736L375.042 60.3546L390.811 73.244L413.588 59.4953" stroke="url(#paint1_linear_0_265)" stroke-width="1.26274"/>
<path d="M0.984488 3.11259H3.88849C4.78449 3.11259 5.56449 3.29259 6.22849 3.65259C6.89249 4.01259 7.40449 4.51659 7.76449 5.16459C8.12449 5.81259 8.30449 6.56059 8.30449 7.40859C8.30449 8.25659 8.12449 9.00459 7.76449 9.65259C7.40449 10.3006 6.89249 10.8046 6.22849 11.1646C5.56449 11.5246 4.78449 11.7046 3.88849 11.7046H0.984488V3.11259ZM3.81649 10.1686C4.74449 10.1686 5.45249 9.92459 5.94049 9.43659C6.42849 8.94059 6.67249 8.26459 6.67249 7.40859C6.67249 6.55259 6.42849 5.88059 5.94049 5.39259C5.45249 4.89659 4.74449 4.64859 3.81649 4.64859H2.60449V10.1686H3.81649ZM11.4999 11.8966C10.8519 11.8966 10.3199 11.7086 9.90386 11.3326C9.48786 10.9486 9.27986 10.4486 9.27986 9.83259C9.27986 9.42459 9.38786 9.06459 9.60386 8.75259C9.81986 8.44059 10.1159 8.20059 10.4919 8.03259C10.8679 7.86459 11.2839 7.78059 11.7399 7.78059C12.3719 7.78059 12.9119 7.87259 13.3599 8.05659V7.79259C13.3599 7.45659 13.2319 7.18459 12.9759 6.97659C12.7279 6.76859 12.3919 6.66459 11.9679 6.66459C11.6799 6.66459 11.3999 6.73259 11.1279 6.86859C10.8639 6.99659 10.6439 7.16859 10.4679 7.38459L9.45986 6.59259C9.75586 6.20859 10.1279 5.91259 10.5759 5.70459C11.0239 5.49659 11.5119 5.39259 12.0399 5.39259C12.9759 5.39259 13.6879 5.60859 14.1759 6.04059C14.6639 6.47259 14.9079 7.10459 14.9079 7.93659V11.7046H13.3599V11.0806H13.2639C13.0799 11.3206 12.8359 11.5166 12.5319 11.6686C12.2359 11.8206 11.8919 11.8966 11.4999 11.8966ZM11.8719 10.6726C12.3279 10.6726 12.6879 10.5286 12.9519 10.2406C13.2239 9.94459 13.3599 9.60059 13.3599 9.20859C12.9519 9.01659 12.5239 8.92059 12.0759 8.92059C11.2599 8.92059 10.8519 9.22459 10.8519 9.83259C10.8519 10.0806 10.9399 10.2846 11.1159 10.4446C11.2919 10.5966 11.5439 10.6726 11.8719 10.6726ZM17.2424 4.91259C16.9624 4.91259 16.7224 4.81259 16.5224 4.61259C16.3224 4.41259 16.2224 4.17259 16.2224 3.89259C16.2224 3.61259 16.3224 3.37659 16.5224 3.18459C16.7224 2.98459 16.9624 2.88459 17.2424 2.88459C17.5224 2.88459 17.7584 2.98459 17.9504 3.18459C18.1504 3.37659 18.2504 3.61259 18.2504 3.89259C18.2504 4.17259 18.1504 4.41259 17.9504 4.61259C17.7584 4.81259 17.5224 4.91259 17.2424 4.91259ZM16.4504 5.58459H18.0224V11.7046H16.4504V5.58459ZM19.6708 3.11259H21.2428V11.7046H19.6708V3.11259ZM24.696 11.4166L22.116 5.58459H23.904L25.488 9.38859H25.584L27.108 5.58459H28.86L25.08 14.2966H23.388L24.696 11.4166ZM31.4576 3.11259H33.2096L34.9856 8.29659L35.2976 9.38859H35.3936L35.7296 8.29659L37.5776 3.11259H39.3296L36.1976 11.7046H34.4936L31.4576 3.11259ZM40.9143 4.91259C40.6343 4.91259 40.3943 4.81259 40.1943 4.61259C39.9943 4.41259 39.8943 4.17259 39.8943 3.89259C39.8943 3.61259 39.9943 3.37659 40.1943 3.18459C40.3943 2.98459 40.6343 2.88459 40.9143 2.88459C41.1943 2.88459 41.4303 2.98459 41.6223 3.18459C41.8223 3.37659 41.9223 3.61259 41.9223 3.89259C41.9223 4.17259 41.8223 4.41259 41.6223 4.61259C41.4303 4.81259 41.1943 4.91259 40.9143 4.91259ZM40.1223 5.58459H41.6943V11.7046H40.1223V5.58459ZM46.1521 11.8966C45.5441 11.8966 44.9961 11.7566 44.5081 11.4766C44.0201 11.1966 43.6361 10.8126 43.3561 10.3246C43.0841 9.82859 42.9481 9.27259 42.9481 8.65659C42.9481 8.07259 43.0841 7.53259 43.3561 7.03659C43.6281 6.53259 44.0041 6.13259 44.4841 5.83659C44.9641 5.54059 45.5001 5.39259 46.0921 5.39259C46.7241 5.39259 47.2681 5.52859 47.7241 5.80059C48.1801 6.07259 48.5241 6.44459 48.7561 6.91659C48.9961 7.38859 49.1161 7.91259 49.1161 8.48859C49.1161 8.67259 49.1041 8.84859 49.0801 9.01659H44.4841C44.5641 9.50459 44.7561 9.87659 45.0601 10.1326C45.3721 10.3806 45.7441 10.5046 46.1761 10.5046C46.5361 10.5046 46.8441 10.4286 47.1001 10.2766C47.3641 10.1166 47.5721 9.90459 47.7241 9.64059L48.9961 10.2646C48.3721 11.3526 47.4241 11.8966 46.1521 11.8966ZM47.6041 7.90059C47.5881 7.70859 47.5161 7.52059 47.3881 7.33659C47.2681 7.14459 47.0961 6.98859 46.8721 6.86859C46.6561 6.74059 46.4001 6.67659 46.1041 6.67659C45.7281 6.67659 45.4041 6.78859 45.1321 7.01259C44.8681 7.22859 44.6761 7.52459 44.5561 7.90059H47.6041ZM49.5259 5.58459H51.2899L52.3459 9.55659H52.4299L53.6539 5.58459H55.2619L56.4859 9.55659H56.5699L57.6259 5.58459H59.3659L57.4099 11.7046H55.7179L54.4699 7.74459H54.3859L53.1499 11.7046H51.4699L49.5259 5.58459ZM62.534 11.8966C61.79 11.8966 61.186 11.7446 60.722 11.4406C60.266 11.1366 59.946 10.7406 59.762 10.2526L61.166 9.64059C61.294 9.92859 61.474 10.1486 61.706 10.3006C61.946 10.4446 62.222 10.5166 62.534 10.5166C62.822 10.5166 63.062 10.4726 63.254 10.3846C63.446 10.2886 63.542 10.1366 63.542 9.92859C63.542 9.72859 63.454 9.58059 63.278 9.48459C63.102 9.38059 62.838 9.28859 62.486 9.20859L61.766 9.05259C61.27 8.93259 60.858 8.71659 60.53 8.40459C60.202 8.08459 60.038 7.68859 60.038 7.21659C60.038 6.86459 60.142 6.54859 60.35 6.26859C60.566 5.98859 60.854 5.77259 61.214 5.62059C61.582 5.46859 61.986 5.39259 62.426 5.39259C63.69 5.39259 64.534 5.83659 64.958 6.72459L63.614 7.31259C63.374 6.88059 62.99 6.66459 62.462 6.66459C62.19 6.66459 61.974 6.71659 61.814 6.82059C61.654 6.91659 61.574 7.04059 61.574 7.19259C61.574 7.48059 61.846 7.69659 62.39 7.84059L63.29 8.05659C63.898 8.20859 64.354 8.44059 64.658 8.75259C64.97 9.06459 65.126 9.44859 65.126 9.90459C65.126 10.2966 65.01 10.6446 64.778 10.9486C64.554 11.2446 64.242 11.4766 63.842 11.6446C63.45 11.8126 63.014 11.8966 62.534 11.8966Z" fill="#1B2767"/>
<path d="M376.398 9.21595C376.58 9.03328 376.943 8.66792 377.485 8.11989C378.027 7.56597 378.404 7.1741 378.616 6.94428C378.917 6.62017 379.12 6.36678 379.226 6.1841C379.332 6.00143 379.385 5.78045 379.385 5.52116C379.385 5.34438 379.338 5.17938 379.244 5.02617C379.156 4.86706 379.023 4.74037 378.846 4.64608C378.675 4.5459 378.469 4.49581 378.227 4.49581C377.909 4.49581 377.653 4.5901 377.458 4.77867C377.27 4.96135 377.146 5.1617 377.087 5.37974L376.398 5.10572C376.457 4.91715 376.563 4.72269 376.716 4.52233C376.869 4.31608 377.075 4.14225 377.335 4.00082C377.594 3.8535 377.9 3.77984 378.254 3.77984C378.625 3.77984 378.952 3.85939 379.235 4.0185C379.524 4.1776 379.748 4.38974 379.907 4.65492C380.066 4.9201 380.146 5.2059 380.146 5.51232C380.146 6.13107 379.821 6.77044 379.173 7.43043L377.361 9.25131H380.216V9.96729H376.398V9.21595ZM383.49 10.1087C383.013 10.1087 382.589 9.97023 382.217 9.69327C381.852 9.41041 381.569 9.03033 381.369 8.55301C381.174 8.0698 381.077 7.53356 381.077 6.94428C381.077 6.355 381.174 5.8217 381.369 5.34438C381.569 4.86117 381.852 4.48108 382.217 4.20412C382.583 3.92127 383.007 3.77984 383.49 3.77984C383.973 3.77984 384.398 3.92127 384.763 4.20412C385.128 4.48108 385.408 4.86117 385.603 5.34438C385.803 5.8217 385.903 6.355 385.903 6.94428C385.903 7.53356 385.803 8.0698 385.603 8.55301C385.408 9.03033 385.126 9.41041 384.754 9.69327C384.389 9.97023 383.968 10.1087 383.49 10.1087ZM383.49 9.39274C383.826 9.39274 384.118 9.28667 384.365 9.07453C384.613 8.85649 384.804 8.56185 384.94 8.1906C385.075 7.81936 385.143 7.40391 385.143 6.94428C385.143 6.48464 385.075 6.06919 384.94 5.69795C384.804 5.3267 384.613 5.03501 384.365 4.82287C384.118 4.60483 383.826 4.49581 383.49 4.49581C383.154 4.49581 382.863 4.60483 382.615 4.82287C382.368 5.03501 382.176 5.3267 382.041 5.69795C381.905 6.06919 381.837 6.48464 381.837 6.94428C381.837 7.40391 381.905 7.81936 382.041 8.1906C382.176 8.56185 382.368 8.85649 382.615 9.07453C382.863 9.28667 383.154 9.39274 383.49 9.39274ZM386.653 9.21595C386.835 9.03328 387.198 8.66792 387.74 8.11989C388.282 7.56597 388.659 7.1741 388.871 6.94428C389.172 6.62017 389.375 6.36678 389.481 6.1841C389.587 6.00143 389.64 5.78045 389.64 5.52116C389.64 5.34438 389.593 5.17938 389.499 5.02617C389.41 4.86706 389.278 4.74037 389.101 4.64608C388.93 4.5459 388.724 4.49581 388.482 4.49581C388.164 4.49581 387.908 4.5901 387.713 4.77867C387.525 4.96135 387.401 5.1617 387.342 5.37974L386.653 5.10572C386.712 4.91715 386.818 4.72269 386.971 4.52233C387.124 4.31608 387.33 4.14225 387.59 4.00082C387.849 3.8535 388.155 3.77984 388.509 3.77984C388.88 3.77984 389.207 3.85939 389.49 4.0185C389.779 4.1776 390.003 4.38974 390.162 4.65492C390.321 4.9201 390.4 5.2059 390.4 5.51232C390.4 6.13107 390.076 6.77044 389.428 7.43043L387.616 9.25131H390.471V9.96729H386.653V9.21595ZM392.66 4.97313L391.599 5.7333L391.21 5.15876L392.934 3.92127H393.411V9.96729H392.66V4.97313Z" fill="black"/>
<path d="M407.809 6.07126H403.074L405.441 8.28106L407.809 6.07126Z" fill="#C4C4C4"/>
<defs>
<linearGradient id="paint0_linear_0_265" x1="45.2149" y1="92.146" x2="413.586" y2="91.2611" gradientUnits="userSpaceOnUse">
<stop stop-color="#4CDFE8" stop-opacity="0.05"/>
<stop offset="1" stop-color="#7947F7" stop-opacity="0.05"/>
</linearGradient>
<linearGradient id="paint1_linear_0_265" x1="34.2645" y1="83.7704" x2="419.282" y2="83.7704" gradientUnits="userSpaceOnUse">
<stop stop-color="#4CDFE8"/>
<stop offset="1" stop-color="#7947F7"/>
</linearGradient>
</defs>
</svg>
