<svg width="54" height="26" viewBox="0 0 54 26" fill="none" xmlns="http://www.w3.org/2000/svg">
<path d="M32.3968 13.4125H35.2468V14.5125H31.2468V7.51251H32.3968V13.4125ZM37.0503 8.56251C36.917 8.69585 36.757 8.76251 36.5703 8.76251C36.3837 8.76251 36.2203 8.69585 36.0803 8.56251C35.947 8.42251 35.8803 8.25918 35.8803 8.07251C35.8803 7.88585 35.947 7.72585 36.0803 7.59251C36.2137 7.45251 36.377 7.38251 36.5703 7.38251C36.7637 7.38251 36.927 7.45251 37.0603 7.59251C37.1937 7.72585 37.2603 7.88585 37.2603 8.07251C37.2603 8.25918 37.1903 8.42251 37.0503 8.56251ZM36.0303 14.5125V9.51251H37.1103V14.5125H36.0303ZM42.7843 14.5125H41.4943L39.4443 12.2025V14.5125H38.3643V7.51251H39.4443V11.7225L41.3843 9.51251H42.7043L40.5043 11.9625L42.7843 14.5125ZM43.9604 12.4725C44.0404 12.8525 44.2237 13.1458 44.5104 13.3525C44.7971 13.5525 45.1471 13.6525 45.5604 13.6525C46.1337 13.6525 46.5637 13.4458 46.8504 13.0325L47.7404 13.5525C47.2471 14.2792 46.5171 14.6425 45.5504 14.6425C44.7371 14.6425 44.0804 14.3958 43.5804 13.9025C43.0804 13.4025 42.8304 12.7725 42.8304 12.0125C42.8304 11.2658 43.0771 10.6425 43.5704 10.1425C44.0637 9.63585 44.6971 9.38251 45.4704 9.38251C46.2037 9.38251 46.8037 9.63918 47.2704 10.1525C47.7437 10.6658 47.9804 11.2892 47.9804 12.0225C47.9804 12.1358 47.9671 12.2858 47.9404 12.4725H43.9604ZM43.9504 11.5925H46.8904C46.8171 11.1858 46.6471 10.8792 46.3804 10.6725C46.1204 10.4658 45.8137 10.3625 45.4604 10.3625C45.0604 10.3625 44.7271 10.4725 44.4604 10.6925C44.1937 10.9125 44.0237 11.2125 43.9504 11.5925ZM49.7054 10.8925C49.7054 11.0592 49.7954 11.1925 49.9754 11.2925C50.1621 11.3858 50.3854 11.4692 50.6454 11.5425C50.9121 11.6092 51.1787 11.6892 51.4454 11.7825C51.7121 11.8758 51.9354 12.0358 52.1154 12.2625C52.3021 12.4825 52.3954 12.7625 52.3954 13.1025C52.3954 13.5825 52.2087 13.9592 51.8354 14.2325C51.4687 14.5058 51.0054 14.6425 50.4454 14.6425C49.9521 14.6425 49.5287 14.5392 49.1754 14.3325C48.8221 14.1258 48.5654 13.8392 48.4054 13.4725L49.3354 12.9325C49.5087 13.4125 49.8787 13.6525 50.4454 13.6525C51.0121 13.6525 51.2954 13.4658 51.2954 13.0925C51.2954 12.9325 51.2021 12.8025 51.0154 12.7025C50.8354 12.6025 50.6121 12.5192 50.3454 12.4525C50.0854 12.3792 49.8221 12.2958 49.5554 12.2025C49.2887 12.1092 49.0621 11.9558 48.8754 11.7425C48.6954 11.5225 48.6054 11.2458 48.6054 10.9125C48.6054 10.4525 48.7787 10.0825 49.1254 9.80251C49.4787 9.52251 49.9154 9.38251 50.4354 9.38251C50.8487 9.38251 51.2154 9.47585 51.5354 9.66251C51.8621 9.84251 52.1121 10.0958 52.2854 10.4225L51.3754 10.9325C51.2021 10.5525 50.8887 10.3625 50.4354 10.3625C50.2287 10.3625 50.0554 10.4092 49.9154 10.5025C49.7754 10.5892 49.7054 10.7192 49.7054 10.8925Z" fill="#242121"/>
<circle cx="12.532" cy="12.5618" r="12.532" fill="#F9896B"/>
<path fill-rule="evenodd" clip-rule="evenodd" d="M6.94792 13.2975C6.23259 11.0642 7.06926 8.28754 9.41392 7.53287C10.6473 7.13487 12.1693 7.46687 13.0339 8.65954C13.8493 7.42287 15.4153 7.13754 16.6473 7.53287C18.9913 8.28754 19.8326 11.0642 19.1179 13.2975C18.0046 16.8375 14.1199 18.6815 13.0339 18.6815C11.9486 18.6815 8.09859 16.8789 6.94792 13.2975Z" stroke="white" stroke-width="1.5" stroke-linecap="round" stroke-linejoin="round"/>
<path d="M15.5257 10.0427C16.3304 10.1253 16.8337 10.7633 16.8037 11.6573" stroke="white" stroke-width="1.5" stroke-linecap="round" stroke-linejoin="round"/>
</svg>
