<svg width="35" height="43" viewBox="0 0 35 43" fill="none" xmlns="http://www.w3.org/2000/svg">
<rect width="35" height="43" rx="17.5" fill="#51459E"/>
<path fill-rule="evenodd" clip-rule="evenodd" d="M15.276 17.3125H14.9115C14.4089 17.3125 14 18.0135 14 18.875V25.125C14 25.9865 14.4089 26.6875 14.9115 26.6875H15.276C15.7786 26.6875 16.1875 25.9865 16.1875 25.125V18.875C16.1875 18.0135 15.7786 17.3125 15.276 17.3125Z" fill="white"/>
<path fill-rule="evenodd" clip-rule="evenodd" d="M20.276 17.3125H19.9115C19.4089 17.3125 19 18.0135 19 18.875V25.125C19 25.9865 19.4089 26.6875 19.9115 26.6875H20.276C20.7786 26.6875 21.1875 25.9865 21.1875 25.125V18.875C21.1875 18.0135 20.7786 17.3125 20.276 17.3125Z" fill="white"/>
</svg>
