<svg width="35" height="43" viewBox="0 0 35 43" fill="none" xmlns="http://www.w3.org/2000/svg">
<rect width="35" height="43" rx="17.5" fill="#84E8F4"/>
<path fill-rule="evenodd" clip-rule="evenodd" d="M18.276 17H17.9115C17.4089 17 17 17.7009 17 18.5625V24.8125C17 25.674 17.4089 26.3749 17.9115 26.3749H18.276C18.7786 26.3749 19.1875 25.674 19.1875 24.8125V18.5625C19.1875 17.7009 18.7786 17 18.276 17Z" fill="#D2FAFF"/>
<path fill-rule="evenodd" clip-rule="evenodd" d="M22.7812 21.8698L22.7812 21.5052C22.7812 21.0026 22.0803 20.5937 21.2187 20.5937L14.9688 20.5937C14.1072 20.5937 13.4063 21.0026 13.4063 21.5052L13.4063 21.8698C13.4063 22.3723 14.1072 22.7812 14.9688 22.7812L21.2187 22.7812C22.0803 22.7812 22.7812 22.3723 22.7812 21.8698Z" fill="#D2FAFF"/>
</svg>
