<svg width="63" height="26" viewBox="0 0 63 26" fill="none" xmlns="http://www.w3.org/2000/svg">
<path d="M33.6852 17.5048C33.0119 17.5048 32.4385 17.3515 31.9652 17.0448C31.4985 16.7382 31.1719 16.3182 30.9852 15.7848L31.9752 15.2048C32.2552 15.9915 32.8352 16.3848 33.7152 16.3848C34.1485 16.3848 34.4719 16.3015 34.6852 16.1348C34.9052 15.9615 35.0152 15.7382 35.0152 15.4648C35.0152 15.1782 34.8985 14.9615 34.6652 14.8148C34.4319 14.6615 34.0185 14.4948 33.4252 14.3148C33.0919 14.2148 32.8219 14.1215 32.6152 14.0348C32.4085 13.9482 32.1885 13.8282 31.9552 13.6748C31.7285 13.5148 31.5585 13.3182 31.4452 13.0848C31.3319 12.8515 31.2752 12.5782 31.2752 12.2648C31.2752 11.6448 31.4952 11.1548 31.9352 10.7948C32.3752 10.4282 32.9052 10.2448 33.5252 10.2448C34.0852 10.2448 34.5752 10.3815 34.9952 10.6548C35.4152 10.9282 35.7385 11.3048 35.9652 11.7848L34.9952 12.3448C34.7019 11.6915 34.2119 11.3648 33.5252 11.3648C33.1919 11.3648 32.9252 11.4448 32.7252 11.6048C32.5252 11.7582 32.4252 11.9682 32.4252 12.2348C32.4252 12.4948 32.5252 12.7015 32.7252 12.8548C32.9319 13.0015 33.3019 13.1582 33.8352 13.3248C34.1019 13.4115 34.2952 13.4782 34.4152 13.5248C34.5419 13.5648 34.7152 13.6315 34.9352 13.7248C35.1619 13.8182 35.3319 13.9115 35.4452 14.0048C35.5585 14.0982 35.6785 14.2148 35.8052 14.3548C35.9385 14.4948 36.0319 14.6548 36.0852 14.8348C36.1385 15.0148 36.1652 15.2182 36.1652 15.4448C36.1652 16.0782 35.9352 16.5815 35.4752 16.9548C35.0219 17.3215 34.4252 17.5048 33.6852 17.5048ZM39.7258 12.2448C40.2991 12.2448 40.7624 12.4282 41.1158 12.7948C41.4691 13.1615 41.6458 13.6648 41.6458 14.3048V17.3748H40.5658V14.4148C40.5658 14.0415 40.4658 13.7548 40.2658 13.5548C40.0658 13.3548 39.7924 13.2548 39.4458 13.2548C39.0658 13.2548 38.7591 13.3748 38.5258 13.6148C38.2924 13.8482 38.1758 14.2082 38.1758 14.6948V17.3748H37.0958V10.3748H38.1758V13.0148C38.5024 12.5015 39.0191 12.2448 39.7258 12.2448ZM46.7687 12.3748H47.8487V17.3748H46.7687V16.6548C46.362 17.2215 45.7787 17.5048 45.0186 17.5048C44.332 17.5048 43.7453 17.2515 43.2586 16.7448C42.772 16.2315 42.5286 15.6082 42.5286 14.8748C42.5286 14.1348 42.772 13.5115 43.2586 13.0048C43.7453 12.4982 44.332 12.2448 45.0186 12.2448C45.7787 12.2448 46.362 12.5248 46.7687 13.0848V12.3748ZM44.0586 16.0248C44.3586 16.3248 44.7353 16.4748 45.1887 16.4748C45.642 16.4748 46.0187 16.3248 46.3187 16.0248C46.6187 15.7182 46.7687 15.3348 46.7687 14.8748C46.7687 14.4148 46.6187 14.0348 46.3187 13.7348C46.0187 13.4282 45.642 13.2748 45.1887 13.2748C44.7353 13.2748 44.3586 13.4282 44.0586 13.7348C43.7586 14.0348 43.6086 14.4148 43.6086 14.8748C43.6086 15.3348 43.7586 15.7182 44.0586 16.0248ZM50.1875 13.2148C50.4608 12.5948 50.9741 12.2848 51.7275 12.2848V13.4548C51.3141 13.4282 50.9541 13.5282 50.6475 13.7548C50.3408 13.9748 50.1875 14.3415 50.1875 14.8548V17.3748H49.1075V12.3748H50.1875V13.2148ZM53.1411 15.3348C53.2211 15.7148 53.4044 16.0082 53.6911 16.2148C53.9777 16.4148 54.3277 16.5148 54.7411 16.5148C55.3144 16.5148 55.7444 16.3082 56.0311 15.8948L56.9211 16.4148C56.4277 17.1415 55.6977 17.5048 54.7311 17.5048C53.9177 17.5048 53.2611 17.2582 52.7611 16.7648C52.2611 16.2648 52.0111 15.6348 52.0111 14.8748C52.0111 14.1282 52.2577 13.5048 52.7511 13.0048C53.2444 12.4982 53.8777 12.2448 54.6511 12.2448C55.3844 12.2448 55.9844 12.5015 56.4511 13.0148C56.9244 13.5282 57.1611 14.1515 57.1611 14.8848C57.1611 14.9982 57.1477 15.1482 57.1211 15.3348H53.1411ZM53.1311 14.4548H56.0711C55.9977 14.0482 55.8277 13.7415 55.5611 13.5348C55.3011 13.3282 54.9944 13.2248 54.6411 13.2248C54.2411 13.2248 53.9077 13.3348 53.6411 13.5548C53.3744 13.7748 53.2044 14.0748 53.1311 14.4548ZM58.8861 13.7548C58.8861 13.9215 58.9761 14.0548 59.1561 14.1548C59.3427 14.2482 59.5661 14.3315 59.8261 14.4048C60.0927 14.4715 60.3594 14.5515 60.6261 14.6448C60.8927 14.7382 61.1161 14.8982 61.2961 15.1248C61.4827 15.3448 61.5761 15.6248 61.5761 15.9648C61.5761 16.4448 61.3894 16.8215 61.0161 17.0948C60.6494 17.3682 60.1861 17.5048 59.6261 17.5048C59.1327 17.5048 58.7094 17.4015 58.3561 17.1948C58.0027 16.9882 57.7461 16.7015 57.5861 16.3348L58.5161 15.7948C58.6894 16.2748 59.0594 16.5148 59.6261 16.5148C60.1927 16.5148 60.4761 16.3282 60.4761 15.9548C60.4761 15.7948 60.3827 15.6648 60.1961 15.5648C60.0161 15.4648 59.7927 15.3815 59.5261 15.3148C59.2661 15.2415 59.0027 15.1582 58.7361 15.0648C58.4694 14.9715 58.2427 14.8182 58.0561 14.6048C57.8761 14.3848 57.7861 14.1082 57.7861 13.7748C57.7861 13.3148 57.9594 12.9448 58.3061 12.6648C58.6594 12.3848 59.0961 12.2448 59.6161 12.2448C60.0294 12.2448 60.3961 12.3382 60.7161 12.5248C61.0427 12.7048 61.2927 12.9582 61.4661 13.2848L60.5561 13.7948C60.3827 13.4148 60.0694 13.2248 59.6161 13.2248C59.4094 13.2248 59.2361 13.2715 59.0961 13.3648C58.9561 13.4515 58.8861 13.5815 58.8861 13.7548Z" fill="#242121"/>
<circle cx="12.6404" cy="13.4241" r="12.532" fill="#51459E"/>
<path d="M15.6263 13.2753H15.6323" stroke="white" stroke-width="2" stroke-linecap="round" stroke-linejoin="round"/>
<path d="M12.9536 13.2753H12.9596" stroke="white" stroke-width="2" stroke-linecap="round" stroke-linejoin="round"/>
<path d="M10.281 13.2753H10.287" stroke="white" stroke-width="2" stroke-linecap="round" stroke-linejoin="round"/>
<path fill-rule="evenodd" clip-rule="evenodd" d="M17.714 17.7132C15.6773 19.7509 12.6597 20.1911 10.1909 19.0493C9.82642 18.9026 7.46743 19.5559 6.95557 19.0446C6.44371 18.5327 7.09761 16.1734 6.95088 15.8089C5.80857 13.3404 6.24942 10.3217 8.28681 8.28473C10.8877 5.68286 15.1132 5.68286 17.714 8.28473C20.3202 10.8906 20.3149 15.112 17.714 17.7132Z" stroke="white" stroke-width="1.5" stroke-linecap="round" stroke-linejoin="round"/>
</svg>
