<svg width="58" height="26" viewBox="0 0 58 26" fill="none" xmlns="http://www.w3.org/2000/svg">
<path d="M33.1352 14.5125L30.7052 7.51251H31.9652L33.8252 13.1225L35.6952 7.51251H36.9452L34.5152 14.5125H33.1352ZM38.4477 8.56251C38.3144 8.69585 38.1544 8.76251 37.9677 8.76251C37.7811 8.76251 37.6177 8.69585 37.4777 8.56251C37.3444 8.42251 37.2777 8.25918 37.2777 8.07251C37.2777 7.88585 37.3444 7.72585 37.4777 7.59251C37.6111 7.45251 37.7744 7.38251 37.9677 7.38251C38.1611 7.38251 38.3244 7.45251 38.4577 7.59251C38.5911 7.72585 38.6577 7.88585 38.6577 8.07251C38.6577 8.25918 38.5877 8.42251 38.4477 8.56251ZM37.4277 14.5125V9.51251H38.5077V14.5125H37.4277ZM40.6117 12.4725C40.6917 12.8525 40.875 13.1458 41.1617 13.3525C41.4484 13.5525 41.7984 13.6525 42.2117 13.6525C42.785 13.6525 43.215 13.4458 43.5017 13.0325L44.3917 13.5525C43.8984 14.2792 43.1684 14.6425 42.2017 14.6425C41.3884 14.6425 40.7317 14.3958 40.2317 13.9025C39.7317 13.4025 39.4817 12.7725 39.4817 12.0125C39.4817 11.2658 39.7284 10.6425 40.2217 10.1425C40.715 9.63585 41.3484 9.38251 42.1217 9.38251C42.855 9.38251 43.455 9.63918 43.9217 10.1525C44.395 10.6658 44.6317 11.2892 44.6317 12.0225C44.6317 12.1358 44.6184 12.2858 44.5917 12.4725H40.6117ZM40.6017 11.5925H43.5417C43.4684 11.1858 43.2984 10.8792 43.0317 10.6725C42.7717 10.4658 42.465 10.3625 42.1117 10.3625C41.7117 10.3625 41.3784 10.4725 41.1117 10.6925C40.845 10.9125 40.675 11.2125 40.6017 11.5925ZM51.1467 9.51251H52.2867L50.7167 14.5125H49.6567L48.6167 11.1425L47.5667 14.5125H46.5067L44.9367 9.51251H46.0767L47.0467 12.9625L48.0967 9.51251H49.1267L50.1667 12.9625L51.1467 9.51251ZM53.7493 10.8925C53.7493 11.0592 53.8393 11.1925 54.0193 11.2925C54.206 11.3858 54.4293 11.4692 54.6893 11.5425C54.956 11.6092 55.2226 11.6892 55.4893 11.7825C55.756 11.8758 55.9793 12.0358 56.1593 12.2625C56.346 12.4825 56.4393 12.7625 56.4393 13.1025C56.4393 13.5825 56.2526 13.9592 55.8793 14.2325C55.5126 14.5058 55.0493 14.6425 54.4893 14.6425C53.996 14.6425 53.5726 14.5392 53.2193 14.3325C52.866 14.1258 52.6093 13.8392 52.4493 13.4725L53.3793 12.9325C53.5526 13.4125 53.9226 13.6525 54.4893 13.6525C55.056 13.6525 55.3393 13.4658 55.3393 13.0925C55.3393 12.9325 55.246 12.8025 55.0593 12.7025C54.8793 12.6025 54.656 12.5192 54.3893 12.4525C54.1293 12.3792 53.866 12.2958 53.5993 12.2025C53.3326 12.1092 53.106 11.9558 52.9193 11.7425C52.7393 11.5225 52.6493 11.2458 52.6493 10.9125C52.6493 10.4525 52.8226 10.0825 53.1693 9.80251C53.5226 9.52251 53.9593 9.38251 54.4793 9.38251C54.8926 9.38251 55.2593 9.47585 55.5793 9.66251C55.906 9.84251 56.156 10.0958 56.3293 10.4225L55.4193 10.9325C55.246 10.5525 54.9326 10.3625 54.4793 10.3625C54.2726 10.3625 54.0993 10.4092 53.9593 10.5025C53.8193 10.5892 53.7493 10.7192 53.7493 10.8925Z" fill="#242121"/>
<circle cx="12.6404" cy="12.5618" r="12.532" fill="#84E8F4"/>
<path d="M9.65273 7.06754V15.4795" stroke="white" stroke-width="1.5" stroke-linecap="round" stroke-linejoin="round"/>
<path d="M6.93332 9.8C6.93332 9.8 8.37932 7.06667 9.65199 7.06667C10.924 7.06667 12.3707 9.8 12.3707 9.8" stroke="white" stroke-width="1.5" stroke-linecap="round" stroke-linejoin="round"/>
<path d="M16.2706 16.9517V8.53967" stroke="white" stroke-width="1.5" stroke-linecap="round" stroke-linejoin="round"/>
<path d="M18.99 14.2189C18.99 14.2189 17.5433 16.9523 16.2713 16.9523C14.9993 16.9523 13.5526 14.2189 13.5526 14.2189" stroke="white" stroke-width="1.5" stroke-linecap="round" stroke-linejoin="round"/>
</svg>
